<svg width="639.989990234375px" height="353.0298828125px" xmlns="http://www.w3.org/2000/svg" viewBox="-69.9949951171875 -101.51494140624999 639.989990234375 353.0298828125" style="background: rgba(0, 0, 0, 0);" preserveAspectRatio="xMidYMid"><defs><filter id="editing-metal-beveled"><feGaussianBlur stdDeviation="4" in="SourceAlpha" result="blur"></feGaussianBlur><feSpecularLighting surfaceScale="5" specularConstant="0.8" specularExponent="7.5" lighting-color="#ffffff" in="blur" result="specular"><fePointLight x="-250" y="-50" z="300"></fePointLight></feSpecularLighting><feComposite operator="in" in="specular" in2="SourceAlpha" result="comp"></feComposite><feComposite in="SourceGraphic" in2="comp" operator="arithmetic" k1="0" k2="1" k3="1" k4="0"></feComposite></filter></defs><g filter="url(#editing-metal-beveled)"><g transform="translate(25.05499267578125, 158.54000091552734)"><path d="M80.42-126.68L80.42-12.60L80.42-12.60Q80.42-5.19 76.52-1.83L76.52-1.83L76.52-1.83Q72.62 1.54 64.64 1.54L64.64 1.54L64.64 1.54Q56.56 1.54 52.71-1.83L52.71-1.83L52.71-1.83Q48.87-5.19 48.87-12.60L48.87-12.60L48.87-127.65L48.87-127.65Q48.87-132.94 41.55-132.94L41.55-132.94L41.55-132.94Q36.26-132.94 30.83-131.35L30.83-131.35L30.83-131.35Q25.39-129.76 21.02-127.02L21.02-127.02L21.02-127.02Q16.64-124.28 13.85-120.48L13.85-120.48L13.85-120.48Q11.06-116.68 11.06-112.26L11.06-112.26L11.06-112.26Q11.06-109.18 11.88-107.35L11.88-107.35L11.88-107.35Q12.70-105.52 13.76-104.61L13.76-104.61L13.76-104.61Q14.81-103.69 15.92-103.45L15.92-103.45L15.92-103.45Q17.03-103.21 17.51-103.21L17.51-103.21L17.51-103.21Q19.91-103.21 21.45-104.03L21.45-104.03L21.45-104.03Q22.99-104.85 24.24-105.76L24.24-105.76L24.24-105.76Q25.49-106.68 26.60-107.49L26.60-107.49L26.60-107.49Q27.70-108.31 29.15-108.31L29.15-108.31L29.15-108.31Q30.30-108.31 31.60-107.78L31.60-107.78L31.60-107.78Q32.90-107.25 34.00-106.10L34.00-106.10L34.00-106.10Q35.11-104.94 35.88-103.07L35.88-103.07L35.88-103.07Q36.65-101.19 36.65-98.50L36.65-98.50L36.65-98.50Q36.65-94.65 35.16-91.86L35.16-91.86L35.16-91.86Q33.67-89.07 31.31-87.20L31.31-87.20L31.31-87.20Q28.95-85.32 25.92-84.41L25.92-84.41L25.92-84.41Q22.89-83.49 19.91-83.49L19.91-83.49L19.91-83.49Q15.29-83.49 11.59-85.08L11.59-85.08L11.59-85.08Q7.89-86.67 5.29-89.46L5.29-89.46L5.29-89.46Q2.69-92.25 1.35-96.00L1.35-96.00L1.35-96.00Q0-99.75 0-103.98L0-103.98L0-103.98Q0-111.97 2.98-118.07L2.98-118.07L2.98-118.07Q5.96-124.18 11.40-128.61L11.40-128.61L11.40-128.61Q16.83-133.03 24.43-135.97L24.43-135.97L24.43-135.97Q32.03-138.90 41.27-140.63L41.27-140.63L41.27-140.63Q50.50-142.36 61.03-143.08L61.03-143.08L61.03-143.08Q71.57-143.81 82.92-143.81L82.92-143.81L82.92-143.81Q110.43-143.81 124.57-133.27L124.57-133.27L124.57-133.27Q138.71-122.74 138.71-103.02L138.71-103.02L138.71-103.02Q138.71-93.40 136.16-86.00L136.16-86.00L136.16-86.00Q133.61-78.59 129.33-73.25L129.33-73.25L129.33-73.25Q125.05-67.91 119.47-64.59L119.47-64.59L119.47-64.59Q113.89-61.27 107.93-59.83L107.93-59.83L107.93-59.83Q101.96-58.39 95.95-58.68L95.95-58.68L95.95-58.68Q89.94-58.97 84.74-60.89L84.74-60.89L86.09-65.03L86.09-65.03Q93.31-62.81 97.97-64.88L97.97-64.88L97.97-64.88Q102.64-66.95 105.28-72.24L105.28-72.24L105.28-72.24Q107.93-77.53 108.94-85.61L108.94-85.61L108.94-85.61Q109.95-93.69 109.95-103.41L109.95-103.41L109.95-103.41Q109.95-110.72 108.41-116.73L108.41-116.73L108.41-116.73Q106.87-122.74 104.22-126.97L104.22-126.97L104.22-126.97Q101.58-131.21 98.07-133.56L98.07-133.56L98.07-133.56Q94.56-135.92 90.61-135.92L90.61-135.92L90.61-135.92Q87.53-135.92 85.56-135.00L85.56-135.00L85.56-135.00Q83.59-134.09 82.48-132.70L82.48-132.70L82.48-132.70Q81.38-131.30 80.95-129.71L80.95-129.71L80.95-129.71Q80.51-128.13 80.42-126.68L80.42-126.68ZM188.34-92.44L188.34-92.44L188.34-92.44Q188.34-101.19 188.20-108.50L188.20-108.50L188.20-108.50Q188.05-115.81 187.91-121.25L187.91-121.25L187.91-121.25Q187.77-126.68 187.62-129.86L187.62-129.86L187.62-129.86Q187.48-133.03 187.48-133.61L187.48-133.61L187.48-133.61Q185.55-134.96 183.10-135.05L183.10-135.05L183.10-135.05Q180.65-135.15 178.24-135.15L178.24-135.15L178.24-135.15Q174.88-135.15 170.16-133.56L170.16-133.56L170.16-133.56Q165.45-131.97 161.02-129.04L161.02-129.04L161.02-129.04Q156.60-126.11 153.52-121.83L153.52-121.83L153.52-121.83Q150.44-117.55 150.44-112.26L150.44-112.26L150.44-112.26Q150.44-109.18 151.26-107.35L151.26-107.35L151.26-107.35Q152.08-105.52 153.18-104.61L153.18-104.61L153.18-104.61Q154.29-103.69 155.40-103.45L155.40-103.45L155.40-103.45Q156.50-103.21 156.98-103.21L156.98-103.21L156.98-103.21Q159.39-103.21 160.93-104.03L160.93-104.03L160.93-104.03Q162.47-104.85 163.72-105.76L163.72-105.76L163.72-105.76Q164.97-106.68 166.07-107.49L166.07-107.49L166.07-107.49Q167.18-108.31 168.62-108.31L168.62-108.31L168.62-108.31Q169.78-108.31 171.08-107.78L171.08-107.78L171.08-107.78Q172.38-107.25 173.48-106.10L173.48-106.10L173.48-106.10Q174.59-104.94 175.36-103.07L175.36-103.07L175.36-103.07Q176.13-101.19 176.13-98.50L176.13-98.50L176.13-98.50Q176.13-94.65 174.64-91.86L174.64-91.86L174.64-91.86Q173.14-89.07 170.79-87.20L170.79-87.20L170.79-87.20Q168.43-85.32 165.40-84.41L165.40-84.41L165.40-84.41Q162.37-83.49 159.39-83.49L159.39-83.49L159.39-83.49Q154.77-83.49 151.07-85.08L151.07-85.08L151.07-85.08Q147.37-86.67 144.77-89.46L144.77-89.46L144.77-89.46Q142.17-92.25 140.82-96.00L140.82-96.00L140.82-96.00Q139.48-99.75 139.48-103.98L139.48-103.98L139.48-103.98Q139.48-113.99 143.66-121.44L143.66-121.44L143.66-121.44Q147.85-128.90 154.82-133.90L154.82-133.90L154.82-133.90Q161.79-138.90 170.88-141.35L170.88-141.35L170.88-141.35Q179.97-143.81 189.69-143.81L189.69-143.81L189.69-143.81Q198.44-143.81 204.12-142.65L204.12-142.65L204.12-142.65Q209.79-141.50 213.35-139.57L213.35-139.57L213.35-139.57Q216.91-137.65 218.93-135.00L218.93-135.00L218.93-135.00Q220.95-132.36 222.39-129.47L222.39-129.47L222.39-129.47Q228.26-117.55 233.79-106.00L233.79-106.00L233.79-106.00Q239.32-94.46 244.47-83.49L244.47-83.49L244.47-83.49Q249.62-72.53 254.47-62.38L254.47-62.38L254.47-62.38Q259.33-52.23 263.95-43.19L263.95-43.19L263.95-56.95L263.95-86.67L263.95-86.67Q263.95-94.65 264.38-102.30L264.38-102.30L264.38-102.30Q264.81-109.95 266.21-116.73L266.21-116.73L266.21-116.73Q267.60-123.51 270.39-129.19L270.39-129.19L270.39-129.19Q273.18-134.86 277.85-139.00L277.85-139.00L277.85-139.00Q282.51-143.13 289.44-145.44L289.44-145.44L289.44-145.44Q296.37-147.75 306.08-147.75L306.08-147.75L306.08-147.75Q310.99-147.75 315.12-147.03L315.12-147.03L315.12-147.03Q319.26-146.31 322.29-144.96L322.29-144.96L322.29-144.96Q325.32-143.61 327.05-141.64L327.05-141.64L327.05-141.64Q328.78-139.67 328.78-137.27L328.78-137.27L328.78-137.27Q328.78-135.73 328.35-134.04L328.35-134.04L328.35-134.04Q327.92-132.36 327.05-131.01L327.05-131.01L327.05-131.01Q326.19-129.67 324.89-128.75L324.89-128.75L324.89-128.75Q323.59-127.84 321.86-127.84L321.86-127.84L321.86-127.84Q320.41-127.84 319.21-129.86L319.21-129.86L319.21-129.86Q318.01-131.88 316.23-134.33L316.23-134.33L316.23-134.33Q314.45-136.78 311.52-138.80L311.52-138.80L311.52-138.80Q308.58-140.82 303.58-140.82L303.58-140.82L303.58-140.82Q295.79-140.82 290.64-138.08L290.64-138.08L290.64-138.08Q285.50-135.34 282.32-130.34L282.32-130.34L282.32-130.34Q279.15-125.34 277.66-118.17L277.66-118.17L277.66-118.17Q276.17-111.00 275.78-102.25L275.78-102.25L275.78-102.25Q275.59-96.19 275.44-90.47L275.44-90.47L275.44-90.47Q275.30-84.74 275.25-78.88L275.25-78.88L275.25-78.88Q275.20-73.01 275.20-66.71L275.20-66.71L275.20-66.71Q275.20-60.41 275.20-53.19L275.20-53.19L275.20-53.19Q275.20-43.00 275.30-34.92L275.30-34.92L275.30-34.92Q275.40-26.84 275.59-21.64L275.59-21.64L275.59-21.64Q279.92-14.24 284.15-8.32L284.15-8.32L284.15-8.32Q288.38-2.40 292.47 1.68L292.47 1.68L292.47 1.68Q296.56 5.77 300.69 7.98L300.69 7.98L300.69 7.98Q304.83 10.20 309.06 10.20L309.06 10.20L309.06 10.20Q310.41 10.20 311.66 9.81L311.66 9.81L311.66 9.81Q312.91 9.43 313.87 8.95L313.87 8.95L313.87 8.95Q314.93 8.46 315.99 7.70L315.99 7.70L319.07 11.45L319.07 11.45Q317.72 12.41 315.27 13.76L315.27 13.76L315.27 13.76Q312.81 15.10 309.30 16.35L309.30 16.35L309.30 16.35Q305.79 17.60 301.27 18.47L301.27 18.47L301.27 18.47Q296.75 19.33 291.36 19.33L291.36 19.33L291.36 19.33Q283.57 19.33 276.41 15.53L276.41 15.53L276.41 15.53Q269.24 11.74 262.60 5.10L262.60 5.10L262.60 5.10Q255.97-1.54 249.91-10.44L249.91-10.44L249.91-10.44Q243.85-19.33 238.22-29.53L238.22-29.53L238.22-29.53Q232.59-39.73 227.40-50.79L227.40-50.79L227.40-50.79Q222.20-61.85 217.34-72.67L217.34-72.67L217.34-72.67Q212.49-83.49 208.01-93.64L208.01-93.64L208.01-93.64Q203.54-103.79 199.31-112.26L199.31-112.26L199.31-112.26Q199.31-106.68 199.40-100.71L199.40-100.71L199.40-100.71Q199.50-94.75 199.50-88.69L199.50-88.69L199.50-58.87L199.50-58.87Q199.50-50.89 199.12-43.29L199.12-43.29L199.12-43.29Q198.73-35.69 197.29-28.91L197.29-28.91L197.29-28.91Q195.85-22.12 193.10-16.40L193.10-16.40L193.10-16.40Q190.36-10.68 185.65-6.54L185.65-6.54L185.65-6.54Q180.94-2.40 174.01-0.10L174.01-0.10L174.01-0.10Q167.08 2.21 157.37 2.21L157.37 2.21L157.37 2.21Q152.46 2.21 148.33 1.49L148.33 1.49L148.33 1.49Q144.19 0.77 141.16-0.58L141.16-0.58L141.16-0.58Q138.13-1.92 136.45-3.85L136.45-3.85L136.45-3.85Q134.76-5.77 134.76-8.27L134.76-8.27L134.76-8.27Q134.76-9.81 135.20-11.49L135.20-11.49L135.20-11.49Q135.63-13.18 136.50-14.52L136.50-14.52L136.50-14.52Q137.36-15.87 138.61-16.79L138.61-16.79L138.61-16.79Q139.86-17.70 141.59-17.70L141.59-17.70L141.59-17.70Q142.56-17.70 143.37-16.74L143.37-16.74L143.37-16.74Q144.19-15.78 145.10-14.33L145.10-14.33L145.10-14.33Q146.02-12.89 147.22-11.21L147.22-11.21L147.22-11.21Q148.42-9.52 150.11-8.08L150.11-8.08L150.11-8.08Q151.79-6.64 154.19-5.68L154.19-5.68L154.19-5.68Q156.60-4.71 159.97-4.71L159.97-4.71L159.97-4.71Q167.76-4.71 172.90-7.45L172.90-7.45L172.90-7.45Q178.05-10.20 181.22-15.25L181.22-15.25L181.22-15.25Q184.40-20.30 185.84-27.41L185.84-27.41L185.84-27.41Q187.28-34.53 187.67-43.38L187.67-43.38L187.67-43.38Q187.96-49.44 188.05-55.12L188.05-55.12L188.05-55.12Q188.15-60.79 188.25-66.66L188.25-66.66L188.25-66.66Q188.34-72.53 188.34-78.88L188.34-78.88L188.34-78.88Q188.34-85.23 188.34-92.44ZM382.17-126.11L382.17-17.12L382.17-17.12Q382.17-14.91 382.60-12.94L382.60-12.94L382.60-12.94Q383.03-10.97 384.33-9.52L384.33-9.52L384.33-9.52Q385.63-8.08 387.89-7.21L387.89-7.21L387.89-7.21Q390.15-6.35 393.81-6.35L393.81-6.35L393.81-6.35Q399.10-6.35 403.52-9.38L403.52-9.38L403.52-9.38Q407.95-12.41 411.12-17.17L411.12-17.17L411.12-17.17Q414.30-21.93 416.03-27.85L416.03-27.85L416.03-27.85Q417.76-33.76 417.76-39.63L417.76-39.63L417.76-39.63Q417.76-48.38 415.40-55.07L415.40-55.07L415.40-55.07Q413.05-61.75 408.81-66.37L408.81-66.37L408.81-66.37Q404.58-70.99 398.81-73.54L398.81-73.54L398.81-73.54Q393.04-76.09 386.30-76.47L386.30-76.47L388.23-81.38L388.23-81.38Q392.46-81.19 396.31-82.53L396.31-82.53L396.31-82.53Q400.16-83.88 403.09-87.25L403.09-87.25L403.09-87.25Q406.02-90.61 407.76-96.34L407.76-96.34L407.76-96.34Q409.49-102.06 409.49-110.72L409.49-110.72L409.49-110.72Q409.49-116.58 408.04-121.30L408.04-121.30L408.04-121.30Q406.60-126.01 404.24-129.23L404.24-129.23L404.24-129.23Q401.89-132.46 398.76-134.19L398.76-134.19L398.76-134.19Q395.64-135.92 392.36-135.92L392.36-135.92L392.36-135.92Q390.34-135.92 388.47-135.44L388.47-135.44L388.47-135.44Q386.59-134.96 385.20-133.80L385.20-133.80L385.20-133.80Q383.80-132.65 382.99-130.77L382.99-130.77L382.99-130.77Q382.17-128.90 382.17-126.11L382.17-126.11ZM384.09-143.81L384.09-143.81L384.09-143.81Q411.99-143.81 425.12-135.10L425.12-135.10L425.12-135.10Q438.25-126.40 438.25-109.75L438.25-109.75L438.25-109.75Q438.25-105.62 437.33-102.16L437.33-102.16L437.33-102.16Q436.42-98.69 434.98-95.85L434.98-95.85L434.98-95.85Q433.53-93.02 431.71-90.80L431.71-90.80L431.71-90.80Q429.88-88.59 427.96-86.96L427.96-86.96L427.96-86.96Q423.43-83.01 417.76-80.80L417.76-80.80L417.76-79.36L417.76-79.36Q426.71-78.30 433.82-73.97L433.82-73.97L433.82-73.97Q436.81-72.14 439.69-69.40L439.69-69.40L439.69-69.40Q442.58-66.66 444.84-62.76L444.84-62.76L444.84-62.76Q447.10-58.87 448.49-53.72L448.49-53.72L448.49-53.72Q449.89-48.58 449.89-41.94L449.89-41.94L449.89-41.94Q449.89-31.84 446.23-23.76L446.23-23.76L446.23-23.76Q442.58-15.68 435.36-10.05L435.36-10.05L435.36-10.05Q428.15-4.42 417.37-1.44L417.37-1.44L417.37-1.44Q406.60 1.54 392.36 1.54L392.36 1.54L392.36 1.54Q379.19 1.54 370.91-0.10L370.91-0.10L370.91-0.10Q362.64-1.73 358.02-4.86L358.02-4.86L358.02-4.86Q353.41-7.98 351.72-12.41L351.72-12.41L351.72-12.41Q350.04-16.83 350.04-22.41L350.04-22.41L350.04-127.65L350.04-127.65Q350.04-132.94 342.73-132.94L342.73-132.94L342.73-132.94Q337.44-132.94 332.00-131.35L332.00-131.35L332.00-131.35Q326.57-129.76 322.19-127.02L322.19-127.02L322.19-127.02Q317.82-124.28 315.03-120.48L315.03-120.48L315.03-120.48Q312.24-116.68 312.24-112.26L312.24-112.26L312.24-112.26Q312.24-109.18 313.05-107.35L313.05-107.35L313.05-107.35Q313.87-105.52 314.93-104.61L314.93-104.61L314.93-104.61Q315.99-103.69 317.09-103.45L317.09-103.45L317.09-103.45Q318.20-103.21 318.68-103.21L318.68-103.21L318.68-103.21Q321.09-103.21 322.63-104.03L322.63-104.03L322.63-104.03Q324.17-104.85 325.42-105.76L325.42-105.76L325.42-105.76Q326.67-106.68 327.77-107.49L327.77-107.49L327.77-107.49Q328.88-108.31 330.32-108.31L330.32-108.31L330.32-108.31Q331.48-108.31 332.77-107.78L332.77-107.78L332.77-107.78Q334.07-107.25 335.18-106.10L335.18-106.10L335.18-106.10Q336.29-104.94 337.05-103.07L337.05-103.07L337.05-103.07Q337.82-101.19 337.82-98.50L337.82-98.50L337.82-98.50Q337.82-94.65 336.33-91.86L336.33-91.86L336.33-91.86Q334.84-89.07 332.49-87.20L332.49-87.20L332.49-87.20Q330.13-85.32 327.10-84.41L327.10-84.41L327.10-84.41Q324.07-83.49 321.09-83.49L321.09-83.49L321.09-83.49Q316.47-83.49 312.77-85.08L312.77-85.08L312.77-85.08Q309.06-86.67 306.47-89.46L306.47-89.46L306.47-89.46Q303.87-92.25 302.52-96.00L302.52-96.00L302.52-96.00Q301.18-99.75 301.18-103.98L301.18-103.98L301.18-103.98Q301.18-111.97 304.16-118.07L304.16-118.07L304.16-118.07Q307.14-124.18 312.57-128.61L312.57-128.61L312.57-128.61Q318.01-133.03 325.61-135.97L325.61-135.97L325.61-135.97Q333.21-138.90 342.44-140.63L342.44-140.63L342.44-140.63Q351.68-142.36 362.21-143.08L362.21-143.08L362.21-143.08Q372.74-143.81 384.09-143.81Z" fill="#f7f6f6"></path></g></g><style>text {
  font-size: 64px;
  font-family: Arial Black;
  dominant-baseline: central;
  text-anchor: middle;
}</style></svg>