<?xml version="1.0" standalone="no"?>
<!DOCTYPE svg PUBLIC "-//W3C//DTD SVG 20010904//EN"
 "http://www.w3.org/TR/2001/REC-SVG-20010904/DTD/svg10.dtd">
<svg version="1.0" xmlns="http://www.w3.org/2000/svg"
 width="600.000000pt" height="260.000000pt" viewBox="0 0 600.000000 260.000000"
 preserveAspectRatio="xMidYMid meet">

<g transform="translate(0.000000,260.000000) scale(0.100000,-0.100000)"
fill="#ffffff" stroke="none">
<path d="M895 2590 c-3 -5 1 -10 9 -10 9 0 16 5 16 10 0 6 -4 10 -9 10 -6 0
-13 -4 -16 -10z"/>
<path d="M5310 2408 c-183 -81 -330 -166 -435 -251 -64 -53 -213 -201 -248
-248 l-27 -36 0 -429 c0 -447 -3 -478 -45 -566 -18 -37 -30 -44 -115 -69 -58
-16 -188 -80 -248 -121 -94 -64 -292 -281 -292 -320 0 -20 54 -5 96 27 247
189 558 211 900 64 62 -26 75 -25 157 20 40 21 117 62 172 91 55 29 136 72
180 95 44 23 125 66 180 95 143 76 188 101 203 112 9 8 12 86 12 327 l0 316
-83 59 c-74 53 -212 126 -237 126 -6 0 -10 6 -10 13 0 12 71 67 190 147 19 13
37 27 40 30 3 3 17 13 33 23 15 10 27 21 27 25 0 7 -138 177 -208 257 -15 17
-44 52 -65 77 -21 26 -44 53 -50 60 -7 7 -25 30 -41 51 -30 39 -44 43 -86 25z
m-158 -260 c18 -24 45 -56 59 -73 64 -71 219 -261 219 -267 0 -3 -55 -48 -122
-99 -68 -51 -125 -96 -128 -99 -8 -10 -68 -50 -74 -50 -3 0 -6 142 -6 315 0
184 4 315 9 315 5 0 24 -19 43 -42z m-122 -664 l0 -686 -22 7 c-67 20 -100 28
-173 40 -44 8 -97 15 -117 15 -21 0 -38 2 -38 5 0 3 40 46 89 95 66 65 98 107
123 157 l33 68 5 435 c5 400 7 438 24 470 21 39 55 80 68 80 4 0 8 -309 8
-686z m194 -2 c44 -21 107 -56 140 -76 49 -32 56 -40 45 -52 -17 -16 -283
-154 -298 -154 -7 0 -11 52 -11 160 0 189 -6 183 124 122z m244 -262 c6 -111
12 -105 -180 -203 -95 -48 -176 -87 -180 -87 -5 0 -8 38 -8 84 0 99 -9 89 160
176 58 29 119 61 135 71 17 10 39 17 50 16 17 -2 20 -11 23 -57z m0 -338 l3
-132 -92 -45 c-51 -25 -100 -45 -110 -45 -11 0 -39 16 -64 35 -25 18 -59 42
-75 52 -25 14 -30 24 -30 54 l0 37 113 58 c61 32 139 73 172 90 33 17 65 31
70 30 6 -2 11 -57 13 -134z"/>
<path d="M1301 2224 c-112 -85 -208 -154 -213 -154 -4 0 -8 54 -8 120 0 110
-2 120 -20 130 -12 6 -30 8 -40 5 -19 -6 -20 -16 -20 -164 l0 -159 -34 -25
c-18 -15 -36 -23 -40 -20 -3 4 -6 29 -6 56 0 93 -33 180 -91 238 -57 57 -99
72 -199 73 -71 0 -94 -4 -140 -26 -102 -49 -190 -167 -190 -254 0 -30 3 -34
25 -34 19 0 28 8 39 33 7 18 28 45 45 60 43 36 84 35 121 -1 35 -36 42 -102
38 -357 l-3 -179 -61 -16 c-142 -36 -227 -138 -227 -272 0 -105 39 -132 74
-53 27 60 60 77 147 73 l67 -3 0 -234 0 -235 -75 -53 c-41 -29 -99 -76 -128
-104 -64 -63 -146 -175 -137 -189 11 -18 34 -11 72 23 116 101 244 167 264
135 5 -7 9 -117 9 -244 0 -202 2 -233 16 -238 28 -11 454 -7 475 4 18 10 19
23 19 215 0 113 3 205 6 205 3 0 23 -14 44 -30 21 -17 43 -30 48 -30 6 0 49
23 97 50 48 28 88 50 90 50 2 0 26 13 52 28 26 16 78 45 116 65 37 20 97 54
135 74 37 20 87 49 112 63 l45 26 3 599 2 599 -27 40 c-59 85 -253 267 -284
265 -8 0 -106 -70 -218 -155z m110 -221 l100 -96 -3 -96 -3 -95 -70 -36 c-38
-20 -133 -68 -209 -108 -77 -40 -141 -72 -143 -72 -2 0 -3 108 -3 239 l0 239
43 31 c23 17 53 39 66 48 74 55 86 61 104 51 10 -5 63 -52 118 -105z m-411
-588 l0 -495 -40 0 -40 0 0 474 0 474 33 21 c17 11 35 21 40 21 4 0 7 -223 7
-495z m508 124 l-3 -92 -120 -61 c-66 -34 -156 -81 -200 -104 -45 -23 -86 -42
-93 -42 -8 0 -12 26 -12 88 l0 87 208 107 c114 59 211 108 215 108 4 0 6 -41
5 -91z m2 -461 c0 -248 -2 -284 -17 -300 -22 -25 -43 -23 -89 9 -80 54 -184
96 -279 111 l-40 7 -3 116 c-2 88 1 119 11 127 7 7 74 43 148 81 74 38 159 83
189 99 30 17 61 31 68 31 9 1 12 -62 12 -281z m-517 -445 c4 -2 7 -94 7 -204
l0 -199 -40 0 -40 0 0 211 0 211 33 -7 c17 -4 35 -9 40 -12z"/>
<path d="M2390 2366 c-140 -46 -229 -170 -230 -318 0 -39 5 -62 16 -73 20 -19
38 -15 43 10 6 36 49 92 79 104 26 11 35 10 68 -7 75 -38 75 -39 72 -227 l-3
-168 -52 -13 c-106 -27 -181 -83 -225 -167 -17 -32 -22 -60 -22 -118 -1 -67 3
-81 29 -125 31 -49 96 -103 126 -104 23 0 29 22 13 45 -20 27 -17 68 6 95 15
17 31 22 72 24 l53 1 0 -205 0 -205 -66 -10 c-36 -6 -91 -23 -122 -38 -200
-99 -251 -361 -102 -526 52 -57 147 -101 218 -101 36 0 59 5 67 15 17 20 6 31
-43 43 -74 19 -107 61 -107 137 0 129 160 146 303 33 l28 -23 42 45 c56 61
109 120 187 210 36 41 68 76 73 78 13 6 7 43 -8 49 -11 3 -28 -9 -51 -36 -20
-22 -39 -41 -42 -41 -4 0 -25 16 -47 35 -43 38 -133 85 -205 109 l-45 14 -3
491 c-1 293 2 491 7 491 5 0 38 -50 73 -112 34 -61 74 -129 87 -152 13 -23 32
-54 41 -71 10 -16 50 -85 89 -152 39 -68 103 -178 142 -245 39 -68 80 -138 90
-156 11 -17 27 -47 38 -65 10 -17 51 -88 91 -157 92 -158 106 -182 129 -224
63 -111 68 -116 116 -116 l45 0 0 750 0 749 38 10 c20 6 43 11 50 11 24 0 107
49 145 85 77 73 109 209 72 299 -20 47 -38 46 -60 -5 -51 -111 -181 -126 -286
-31 -45 40 -80 52 -104 34 -6 -4 -35 -36 -65 -72 -30 -36 -57 -67 -60 -70 -31
-27 -170 -205 -170 -216 0 -8 7 -17 16 -21 11 -4 29 9 58 41 45 51 55 55 79
28 25 -28 105 -64 167 -77 l55 -11 3 -399 c1 -227 -2 -403 -7 -408 -5 -5 -21
10 -40 36 -17 25 -31 48 -31 50 0 3 -19 36 -42 73 -36 60 -101 170 -158 269
-19 34 -111 189 -221 375 -41 68 -76 129 -78 135 -9 22 -125 192 -150 218 -67
73 -188 104 -281 73z"/>
<path d="M4250 2358 c-109 -41 -211 -128 -267 -228 -47 -83 -16 -95 55 -22 78
78 133 83 335 28 32 -9 72 -16 88 -16 48 0 32 -19 -83 -95 -199 -132 -210
-146 -218 -275 -5 -82 -6 -85 -30 -88 -109 -14 -195 -66 -245 -147 -27 -44
-30 -56 -29 -134 0 -61 5 -96 17 -118 27 -52 67 -40 67 19 0 29 35 73 68 87
16 7 55 11 88 9 l59 -3 3 -115 c7 -253 -26 -396 -110 -478 -39 -38 -45 -56
-28 -82 8 -13 16 -12 67 5 131 44 246 126 312 224 77 115 80 136 81 596 0 338
2 395 17 433 13 36 37 60 142 144 69 55 135 108 146 117 11 9 40 32 65 51 78
60 90 73 90 92 0 23 -3 23 -70 -3 -63 -24 -203 -29 -286 -11 -27 6 -70 16 -96
22 -73 16 -176 11 -238 -12z"/>
</g>
</svg>
