<svg width="1631.81240234375px" height="273.215234375px" xmlns="http://www.w3.org/2000/svg" viewBox="-565.906201171875 -61.60761718750001 1631.81240234375 273.215234375" style="background: rgba(0, 0, 0, 0);" preserveAspectRatio="xMidYMid"><defs><filter id="editing-metal-beveled"><feGaussianBlur stdDeviation="4" in="SourceAlpha" result="blur"></feGaussianBlur><feSpecularLighting surfaceScale="5" specularConstant="0.8" specularExponent="7.5" lighting-color="#ffffff" in="blur" result="specular"><fePointLight x="-250" y="-50" z="300"></fePointLight></feSpecularLighting><feComposite operator="in" in="specular" in2="SourceAlpha" result="comp"></feComposite><feComposite in="SourceGraphic" in2="comp" operator="arithmetic" k1="0" k2="1" k3="1" k4="0"></feComposite></filter></defs><g filter="url(#editing-metal-beveled)"><g transform="translate(-340.1500244140625, 139.33999633789062)"><path d="M61.23-96.46L61.23-9.59L61.23-9.59Q61.23-3.96 58.26-1.39L58.26-1.39L58.26-1.39Q55.30 1.17 49.22 1.17L49.22 1.17L49.22 1.17Q43.07 1.17 40.14-1.39L40.14-1.39L40.14-1.39Q37.21-3.96 37.21-9.59L37.21-9.59L37.21-97.19L37.21-97.19Q37.21-101.22 31.64-101.22L31.64-101.22L31.64-101.22Q27.61-101.22 23.47-100.01L23.47-100.01L23.47-100.01Q19.34-98.80 16.00-96.72L16.00-96.72L16.00-96.72Q12.67-94.63 10.55-91.74L10.55-91.74L10.55-91.74Q8.42-88.84 8.42-85.47L8.42-85.47L8.42-85.47Q8.42-83.13 9.05-81.74L9.05-81.74L9.05-81.74Q9.67-80.35 10.47-79.65L10.47-79.65L10.47-79.65Q11.28-78.96 12.12-78.77L12.12-78.77L12.12-78.77Q12.96-78.59 13.33-78.59L13.33-78.59L13.33-78.59Q15.16-78.59 16.33-79.21L16.33-79.21L16.33-79.21Q17.50-79.83 18.46-80.53L18.46-80.53L18.46-80.53Q19.41-81.23 20.25-81.85L20.25-81.85L20.25-81.85Q21.09-82.47 22.19-82.47L22.19-82.47L22.19-82.47Q23.07-82.47 24.06-82.07L24.06-82.07L24.06-82.07Q25.05-81.67 25.89-80.79L25.89-80.79L25.89-80.79Q26.73-79.91 27.32-78.48L27.32-78.48L27.32-78.48Q27.91-77.05 27.91-75L27.91-75L27.91-75Q27.91-72.07 26.77-69.95L26.77-69.95L26.77-69.95Q25.63-67.82 23.84-66.39L23.84-66.39L23.84-66.39Q22.05-64.97 19.74-64.27L19.74-64.27L19.74-64.27Q17.43-63.57 15.16-63.57L15.16-63.57L15.16-63.57Q11.65-63.57 8.83-64.78L8.83-64.78L8.83-64.78Q6.01-65.99 4.03-68.12L4.03-68.12L4.03-68.12Q2.05-70.24 1.03-73.10L1.03-73.10L1.03-73.10Q0-75.95 0-79.17L0-79.17L0-79.17Q0-85.25 2.27-89.90L2.27-89.90L2.27-89.90Q4.54-94.56 8.68-97.92L8.68-97.92L8.68-97.92Q12.82-101.29 18.60-103.53L18.60-103.53L18.60-103.53Q24.39-105.76 31.42-107.08L31.42-107.08L31.42-107.08Q38.45-108.40 46.47-108.95L46.47-108.95L46.47-108.95Q54.49-109.50 63.13-109.50L63.13-109.50L63.13-109.50Q84.08-109.50 94.85-101.48L94.85-101.48L94.85-101.48Q105.62-93.46 105.62-78.44L105.62-78.44L105.62-78.44Q105.62-71.12 103.67-65.48L103.67-65.48L103.67-65.48Q101.73-59.84 98.47-55.77L98.47-55.77L98.47-55.77Q95.21-51.71 90.97-49.18L90.97-49.18L90.97-49.18Q86.72-46.66 82.18-45.56L82.18-45.56L82.18-45.56Q77.64-44.46 73.06-44.68L73.06-44.68L73.06-44.68Q68.48-44.90 64.53-46.36L64.53-46.36L65.55-49.51L65.55-49.51Q71.04-47.83 74.60-49.40L74.60-49.40L74.60-49.40Q78.15-50.98 80.16-55.00L80.16-55.00L80.16-55.00Q82.18-59.03 82.95-65.19L82.95-65.19L82.95-65.19Q83.72-71.34 83.72-78.74L83.72-78.74L83.72-78.74Q83.72-84.30 82.54-88.88L82.54-88.88L82.54-88.88Q81.37-93.46 79.36-96.68L79.36-96.68L79.36-96.68Q77.34-99.90 74.67-101.70L74.67-101.70L74.67-101.70Q72.00-103.49 68.99-103.49L68.99-103.49L68.99-103.49Q66.65-103.49 65.15-102.80L65.15-102.80L65.15-102.80Q63.65-102.10 62.81-101.04L62.81-101.04L62.81-101.04Q61.96-99.98 61.63-98.77L61.63-98.77L61.63-98.77Q61.30-97.56 61.23-96.46L61.23-96.46ZM180.25-65.41L180.25-12.74L180.25-12.74Q180.25-12.08 180.32-11.32L180.32-11.32L180.32-11.32Q180.40-10.55 180.69-9.85L180.69-9.85L180.69-9.85Q180.98-9.16 181.57-8.72L181.57-8.72L181.57-8.72Q182.15-8.28 183.25-8.28L183.25-8.28L183.25-8.28Q184.64-8.28 185.74-9.27L185.74-9.27L185.74-9.27Q186.84-10.25 187.79-11.28L187.79-11.28L189.55-9.74L189.55-9.74Q188.45-8.20 186.80-6.34L186.80-6.34L186.80-6.34Q185.16-4.47 182.81-2.78L182.81-2.78L182.81-2.78Q180.47-1.10 177.47 0.04L177.47 0.04L177.47 0.04Q174.46 1.17 170.65 1.17L170.65 1.17L170.65 1.17Q167.43 1.17 165.05 0.33L165.05 0.33L165.05 0.33Q162.67-0.51 161.02-1.94L161.02-1.94L161.02-1.94Q159.38-3.37 158.57-5.31L158.57-5.31L158.57-5.31Q157.76-7.25 157.76-9.45L157.76-9.45L157.76-12.74L157.76-12.74Q154.10-8.79 150.07-5.79L150.07-5.79L150.07-5.79Q148.32-4.47 146.34-3.22L146.34-3.22L146.34-3.22Q144.36-1.98 142.24-0.99L142.24-0.99L142.24-0.99Q140.11 0 137.84 0.59L137.84 0.59L137.84 0.59Q135.57 1.17 133.30 1.17L133.30 1.17L133.30 1.17Q128.91 1.17 125.79-0.40L125.79-0.40L125.79-0.40Q122.68-1.98 120.78-4.54L120.78-4.54L120.78-4.54Q118.87-7.10 117.99-10.33L117.99-10.33L117.99-10.33Q117.11-13.55 117.11-16.77L117.11-16.77L117.11-62.11L117.11-62.11Q117.11-62.77 117.04-63.54L117.04-63.54L117.04-63.54Q116.97-64.31 116.67-65.00L116.67-65.00L116.67-65.00Q116.38-65.70 115.80-66.14L115.80-66.14L115.80-66.14Q115.21-66.58 114.11-66.58L114.11-66.58L114.11-66.58Q112.79-66.58 111.66-65.59L111.66-65.59L111.66-65.59Q110.52-64.60 109.64-63.57L109.64-63.57L107.81-65.11L107.81-65.11Q108.91-66.65 110.56-68.52L110.56-68.52L110.56-68.52Q112.21-70.39 114.55-72.07L114.55-72.07L114.55-72.07Q116.89-73.75 119.93-74.89L119.93-74.89L119.93-74.89Q122.97-76.03 126.71-76.03L126.71-76.03L126.71-76.03Q129.93-76.03 132.35-75.18L132.35-75.18L132.35-75.18Q134.77-74.34 136.38-72.91L136.38-72.91L136.38-72.91Q137.99-71.48 138.79-69.54L138.79-69.54L138.79-69.54Q139.60-67.60 139.60-65.41L139.60-65.41L139.60-16.48L139.60-16.48Q139.60-15.45 139.93-14.39L139.93-14.39L139.93-14.39Q140.26-13.33 140.88-12.45L140.88-12.45L140.88-12.45Q141.50-11.57 142.46-11.02L142.46-11.02L142.46-11.02Q143.41-10.47 144.73-10.47L144.73-10.47L144.73-10.47Q146.85-10.47 148.97-11.57L148.97-11.57L148.97-11.57Q151.10-12.67 152.86-14.17L152.86-14.17L152.86-14.17Q154.61-15.67 155.90-17.14L155.90-17.14L155.90-17.14Q157.18-18.60 157.76-19.34L157.76-19.34L157.76-62.11L157.76-62.11Q157.76-62.77 157.69-63.54L157.69-63.54L157.69-63.54Q157.62-64.31 157.32-65.00L157.32-65.00L157.32-65.00Q157.03-65.70 156.45-66.14L156.45-66.14L156.45-66.14Q155.86-66.58 154.76-66.58L154.76-66.58L154.76-66.58Q153.44-66.58 152.31-65.59L152.31-65.59L152.31-65.59Q151.17-64.60 150.29-63.57L150.29-63.57L148.46-65.11L148.46-65.11Q149.56-66.65 151.21-68.52L151.21-68.52L151.21-68.52Q152.86-70.39 155.20-72.07L155.20-72.07L155.20-72.07Q157.54-73.75 160.58-74.89L160.58-74.89L160.58-74.89Q163.62-76.03 167.36-76.03L167.36-76.03L167.36-76.03Q170.58-76.03 173.00-75.18L173.00-75.18L173.00-75.18Q175.42-74.34 177.03-72.91L177.03-72.91L177.03-72.91Q178.64-71.48 179.44-69.54L179.44-69.54L179.44-69.54Q180.25-67.60 180.25-65.41L180.25-65.41ZM240.75-36.47L240.75-36.47L240.75-36.47Q240.75-42.85 240.09-48.45L240.09-48.45L240.09-48.45Q239.43-54.05 237.96-58.26L237.96-58.26L237.96-58.26Q236.50-62.48 234.23-64.93L234.23-64.93L234.23-64.93Q231.96-67.38 228.74-67.38L228.74-67.38L228.74-67.38Q226.25-67.38 224.52-66.17L224.52-66.17L224.52-66.17Q222.80-64.97 221.70-63.43L221.70-63.43L221.70-63.43Q220.61-61.89 220.09-60.39L220.09-60.39L220.09-60.39Q219.58-58.89 219.58-58.37L219.58-58.37L219.58-36.47L219.58-36.47Q219.58-20.51 222.25-13.26L222.25-13.26L222.25-13.26Q224.93-6.01 230.13-6.01L230.13-6.01L230.13-6.01Q235.62-6.01 238.18-13.40L238.18-13.40L238.18-13.40Q240.75-20.80 240.75-36.47ZM197.09-35.52L197.09-101.07L197.09-101.07Q197.09-103.20 196.11-104.77L196.11-104.77L196.11-104.77Q195.12-106.35 192.77-106.35L192.77-106.35L192.77-106.35Q191.53-106.35 190.61-105.94L190.61-105.94L190.61-105.94Q189.70-105.54 188.67-104.74L188.67-104.74L187.21-106.49L187.21-106.49Q188.89-107.89 190.98-109.24L190.98-109.24L190.98-109.24Q193.07-110.60 195.48-111.62L195.48-111.62L195.48-111.62Q197.90-112.65 200.68-113.31L200.68-113.31L200.68-113.31Q203.47-113.96 206.54-113.96L206.54-113.96L206.54-113.96Q210.79-113.96 213.39-112.68L213.39-112.68L213.39-112.68Q215.99-111.40 217.35-109.53L217.35-109.53L217.35-109.53Q218.70-107.67 219.14-105.51L219.14-105.51L219.14-105.51Q219.58-103.34 219.58-101.51L219.58-101.51L219.58-68.85L219.58-68.85Q220.46-69.65 221.85-70.86L221.85-70.86L221.85-70.86Q223.24-72.07 225.37-73.24L225.37-73.24L225.37-73.24Q227.49-74.41 230.46-75.22L230.46-75.22L230.46-75.22Q233.42-76.03 237.45-76.03L237.45-76.03L237.45-76.03Q242.14-76.03 246.83-73.86L246.83-73.86L246.83-73.86Q251.51-71.70 255.25-67.09L255.25-67.09L255.25-67.09Q258.98-62.48 261.33-55.22L261.33-55.22L261.33-55.22Q263.67-47.97 263.67-37.79L263.67-37.79L263.67-37.79Q263.67-29.81 261.51-22.71L261.51-22.71L261.51-22.71Q259.35-15.60 255.10-10.29L255.10-10.29L255.10-10.29Q250.85-4.98 244.48-1.90L244.48-1.90L244.48-1.90Q238.11 1.17 229.69 1.17L229.69 1.17L229.69 1.17Q220.53 1.17 214.27-1.79L214.27-1.79L214.27-1.79Q208.01-4.76 204.20-9.78L204.20-9.78L204.20-9.78Q200.39-14.79 198.74-21.46L198.74-21.46L198.74-21.46Q197.09-28.13 197.09-35.52L197.09-35.52ZM300.44-101.88L300.44-6.45L300.44-6.45Q300.44-5.49 300.11-4.17L300.11-4.17L300.11-4.17Q299.78-2.86 298.57-1.68L298.57-1.68L298.57-1.68Q297.36-0.51 295.06 0.33L295.06 0.33L295.06 0.33Q292.75 1.17 288.87 1.17L288.87 1.17L288.87 1.17Q284.99 1.17 282.79 0.26L282.79 0.26L282.79 0.26Q280.59-0.66 279.53-1.90L279.53-1.90L279.53-1.90Q278.47-3.15 278.21-4.47L278.21-4.47L278.21-4.47Q277.95-5.79 277.95-6.59L277.95-6.59L277.95-101.07L277.95-101.07Q277.95-103.20 276.97-104.77L276.97-104.77L276.97-104.77Q275.98-106.35 273.63-106.35L273.63-106.35L273.63-106.35Q272.39-106.35 271.47-105.94L271.47-105.94L271.47-105.94Q270.56-105.54 269.53-104.74L269.53-104.74L268.07-106.49L268.07-106.49Q269.75-107.89 271.80-109.24L271.80-109.24L271.80-109.24Q273.85-110.60 276.31-111.62L276.31-111.62L276.31-111.62Q278.76-112.65 281.54-113.31L281.54-113.31L281.54-113.31Q284.33-113.96 287.40-113.96L287.40-113.96L287.40-113.96Q292.16-113.96 294.80-112.68L294.80-112.68L294.80-112.68Q297.44-111.40 298.68-109.53L298.68-109.53L298.68-109.53Q299.93-107.67 300.18-105.58L300.18-105.58L300.18-105.58Q300.44-103.49 300.44-101.88L300.44-101.88ZM342.26-63.87L342.26-6.59L342.26-6.59Q342.26-5.64 341.93-4.28L341.93-4.28L341.93-4.28Q341.60-2.93 340.39-1.72L340.39-1.72L340.39-1.72Q339.18-0.51 336.91 0.33L336.91 0.33L336.91 0.33Q334.64 1.17 330.76 1.17L330.76 1.17L330.76 1.17Q326.88 1.17 324.68 0.26L324.68 0.26L324.68 0.26Q322.49-0.66 321.39-1.90L321.39-1.90L321.39-1.90Q320.29-3.15 320.03-4.47L320.03-4.47L320.03-4.47Q319.78-5.79 319.78-6.59L319.78-6.59L319.78-63.13L319.78-63.13Q319.78-65.26 318.79-66.83L318.79-66.83L318.79-66.83Q317.80-68.41 315.45-68.41L315.45-68.41L315.45-68.41Q314.21-68.41 313.33-67.97L313.33-67.97L313.33-67.97Q312.45-67.53 311.43-66.72L311.43-66.72L309.89-68.55L309.89-68.55Q311.57-69.95 313.66-71.30L313.66-71.30L313.66-71.30Q315.75-72.66 318.16-73.68L318.16-73.68L318.16-73.68Q320.58-74.71 323.36-75.37L323.36-75.37L323.36-75.37Q326.15-76.03 329.22-76.03L329.22-76.03L329.22-76.03Q333.98-76.03 336.62-74.74L336.62-74.74L336.62-74.74Q339.26-73.46 340.50-71.59L340.50-71.59L340.50-71.59Q341.75-69.73 342.00-67.60L342.00-67.60L342.00-67.60Q342.26-65.48 342.26-63.87L342.26-63.87ZM317.50-92.72L317.50-92.72L317.50-92.72Q317.50-94.78 318.42-96.64L318.42-96.64L318.42-96.64Q319.34-98.51 320.98-99.90L320.98-99.90L320.98-99.90Q322.63-101.29 324.79-102.10L324.79-102.10L324.79-102.10Q326.95-102.91 329.52-102.91L329.52-102.91L329.52-102.91Q332.01-102.91 334.17-102.10L334.17-102.10L334.17-102.10Q336.33-101.29 337.94-99.90L337.94-99.90L337.94-99.90Q339.55-98.51 340.47-96.64L340.47-96.64L340.47-96.64Q341.38-94.78 341.38-92.72L341.38-92.72L341.38-92.72Q341.38-90.60 340.47-88.77L340.47-88.77L340.47-88.77Q339.55-86.94 337.94-85.58L337.94-85.58L337.94-85.58Q336.33-84.23 334.17-83.42L334.17-83.42L334.17-83.42Q332.01-82.62 329.52-82.62L329.52-82.62L329.52-82.62Q326.95-82.62 324.79-83.42L324.79-83.42L324.79-83.42Q322.63-84.23 320.98-85.58L320.98-85.58L320.98-85.58Q319.34-86.94 318.42-88.77L318.42-88.77L318.42-88.77Q317.50-90.60 317.50-92.72ZM407.23-50.68L407.23-50.68L407.23-50.68Q404.96-50.68 403.42-51.38L403.42-51.38L403.42-51.38Q401.88-52.08 400.93-53.25L400.93-53.25L400.93-53.25Q399.98-54.42 399.54-55.85L399.54-55.85L399.54-55.85Q399.10-57.28 399.10-58.81L399.10-58.81L399.10-58.81Q399.10-60.79 399.35-62.62L399.35-62.62L399.35-62.62Q399.61-64.45 399.43-65.92L399.43-65.92L399.43-65.92Q399.24-67.38 398.29-68.26L398.29-68.26L398.29-68.26Q397.34-69.14 394.92-69.14L394.92-69.14L394.92-69.14Q392.36-69.14 389.50-67.68L389.50-67.68L389.50-67.68Q386.65-66.21 384.30-63.06L384.30-63.06L384.30-63.06Q381.96-59.91 380.42-54.97L380.42-54.97L380.42-54.97Q378.88-50.02 378.88-43.07L378.88-43.07L378.88-43.07Q378.88-35.38 380.31-29.04L380.31-29.04L380.31-29.04Q381.74-22.71 384.59-18.24L384.59-18.24L384.59-18.24Q387.45-13.77 391.70-11.32L391.70-11.32L391.70-11.32Q395.95-8.86 401.66-8.86L401.66-8.86L401.66-8.86Q404.22-8.86 406.53-9.45L406.53-9.45L406.53-9.45Q408.84-10.03 410.89-11.06L410.89-11.06L410.89-11.06Q412.94-12.08 414.81-13.44L414.81-13.44L414.81-13.44Q416.67-14.79 418.43-16.33L418.43-16.33L420.26-14.58L420.26-14.58Q418.58-12.30 415.94-9.59L415.94-9.59L415.94-9.59Q413.31-6.88 409.57-4.50L409.57-4.50L409.57-4.50Q405.83-2.12 400.85-0.55L400.85-0.55L400.85-0.55Q395.87 1.03 389.50 1.03L389.50 1.03L389.50 1.03Q383.13 1.03 377.09-1.43L377.09-1.43L377.09-1.43Q371.04-3.88 366.36-8.57L366.36-8.57L366.36-8.57Q361.67-13.26 358.85-19.96L358.85-19.96L358.85-19.96Q356.03-26.66 356.03-35.23L356.03-35.23L356.03-35.23Q356.03-41.89 357.71-47.50L357.71-47.50L357.71-47.50Q359.40-53.10 362.29-57.64L362.29-57.64L362.29-57.64Q365.19-62.18 369.03-65.63L369.03-65.63L369.03-65.63Q372.88-69.07 377.12-71.37L377.12-71.37L377.12-71.37Q381.37-73.68 385.80-74.85L385.80-74.85L385.80-74.85Q390.23-76.03 394.34-76.03L394.34-76.03L394.34-76.03Q399.76-76.03 403.78-74.78L403.78-74.78L403.78-74.78Q407.81-73.54 410.49-71.48L410.49-71.48L410.49-71.48Q413.16-69.43 414.48-66.76L414.48-66.76L414.48-66.76Q415.80-64.09 415.80-61.23L415.80-61.23L415.80-61.23Q415.80-59.11 415.25-57.17L415.25-57.17L415.25-57.17Q414.70-55.22 413.64-53.80L413.64-53.80L413.64-53.80Q412.57-52.37 410.96-51.53L410.96-51.53L410.96-51.53Q409.35-50.68 407.23-50.68ZM457.32-70.39L457.32-70.39L457.32-70.39Q457.32-77.05 457.21-82.62L457.21-82.62L457.21-82.62Q457.10-88.18 456.99-92.32L456.99-92.32L456.99-92.32Q456.88-96.46 456.77-98.88L456.77-98.88L456.77-98.88Q456.67-101.29 456.67-101.73L456.67-101.73L456.67-101.73Q455.20-102.76 453.33-102.83L453.33-102.83L453.33-102.83Q451.46-102.91 449.63-102.91L449.63-102.91L449.63-102.91Q447.07-102.91 443.48-101.70L443.48-101.70L443.48-101.70Q439.89-100.49 436.52-98.25L436.52-98.25L436.52-98.25Q433.15-96.02 430.81-92.76L430.81-92.76L430.81-92.76Q428.47-89.50 428.47-85.47L428.47-85.47L428.47-85.47Q428.47-83.13 429.09-81.74L429.09-81.74L429.09-81.74Q429.71-80.35 430.55-79.65L430.55-79.65L430.55-79.65Q431.40-78.96 432.24-78.77L432.24-78.77L432.24-78.77Q433.08-78.59 433.45-78.59L433.45-78.59L433.45-78.59Q435.28-78.59 436.45-79.21L436.45-79.21L436.45-79.21Q437.62-79.83 438.57-80.53L438.57-80.53L438.57-80.53Q439.53-81.23 440.37-81.85L440.37-81.85L440.37-81.85Q441.21-82.47 442.31-82.47L442.31-82.47L442.31-82.47Q443.19-82.47 444.18-82.07L444.18-82.07L444.18-82.07Q445.17-81.67 446.01-80.79L446.01-80.79L446.01-80.79Q446.85-79.91 447.44-78.48L447.44-78.48L447.44-78.48Q448.02-77.05 448.02-75L448.02-75L448.02-75Q448.02-72.07 446.89-69.95L446.89-69.95L446.89-69.95Q445.75-67.82 443.96-66.39L443.96-66.39L443.96-66.39Q442.16-64.97 439.86-64.27L439.86-64.27L439.86-64.27Q437.55-63.57 435.28-63.57L435.28-63.57L435.28-63.57Q431.76-63.57 428.94-64.78L428.94-64.78L428.94-64.78Q426.12-65.99 424.15-68.12L424.15-68.12L424.15-68.12Q422.17-70.24 421.14-73.10L421.14-73.10L421.14-73.10Q420.12-75.95 420.12-79.17L420.12-79.17L420.12-79.17Q420.12-86.79 423.30-92.47L423.30-92.47L423.30-92.47Q426.49-98.14 431.80-101.95L431.80-101.95L431.80-101.95Q437.11-105.76 444.03-107.63L444.03-107.63L444.03-107.63Q450.95-109.50 458.35-109.50L458.35-109.50L458.35-109.50Q465.01-109.50 469.34-108.62L469.34-108.62L469.34-108.62Q473.66-107.74 476.37-106.27L476.37-106.27L476.37-106.27Q479.08-104.81 480.62-102.80L480.62-102.80L480.62-102.80Q482.15-100.78 483.25-98.58L483.25-98.58L483.25-98.58Q487.72-89.50 491.93-80.71L491.93-80.71L491.93-80.71Q496.14-71.92 500.06-63.57L500.06-63.57L500.06-63.57Q503.98-55.22 507.68-47.50L507.68-47.50L507.68-47.50Q511.38-39.77 514.89-32.89L514.89-32.89L514.89-43.36L514.89-65.99L514.89-65.99Q514.89-72.07 515.22-77.89L515.22-77.89L515.22-77.89Q515.55-83.72 516.61-88.88L516.61-88.88L516.61-88.88Q517.68-94.04 519.80-98.36L519.80-98.36L519.80-98.36Q521.92-102.69 525.48-105.83L525.48-105.83L525.48-105.83Q529.03-108.98 534.30-110.74L534.30-110.74L534.30-110.74Q539.58-112.50 546.97-112.50L546.97-112.50L546.97-112.50Q550.71-112.50 553.86-111.95L553.86-111.95L553.86-111.95Q557.01-111.40 559.31-110.38L559.31-110.38L559.31-110.38Q561.62-109.35 562.94-107.85L562.94-107.85L562.94-107.85Q564.26-106.35 564.26-104.52L564.26-104.52L564.26-104.52Q564.26-103.34 563.93-102.06L563.93-102.06L563.93-102.06Q563.60-100.78 562.94-99.76L562.94-99.76L562.94-99.76Q562.28-98.73 561.29-98.03L561.29-98.03L561.29-98.03Q560.30-97.34 558.98-97.34L558.98-97.34L558.98-97.34Q557.89-97.34 556.97-98.88L556.97-98.88L556.97-98.88Q556.05-100.42 554.70-102.28L554.70-102.28L554.70-102.28Q553.34-104.15 551.11-105.69L551.11-105.69L551.11-105.69Q548.88-107.23 545.07-107.23L545.07-107.23L545.07-107.23Q539.14-107.23 535.22-105.14L535.22-105.14L535.22-105.14Q531.30-103.05 528.88-99.24L528.88-99.24L528.88-99.24Q526.46-95.43 525.33-89.98L525.33-89.98L525.33-89.98Q524.19-84.52 523.90-77.86L523.90-77.86L523.90-77.86Q523.75-73.24 523.65-68.88L523.65-68.88L523.65-68.88Q523.54-64.53 523.50-60.06L523.50-60.06L523.50-60.06Q523.46-55.59 523.46-50.79L523.46-50.79L523.46-50.79Q523.46-46.00 523.46-40.50L523.46-40.50L523.46-40.50Q523.46-32.74 523.54-26.59L523.54-26.59L523.54-26.59Q523.61-20.43 523.75-16.48L523.75-16.48L523.75-16.48Q527.05-10.84 530.27-6.34L530.27-6.34L530.27-6.34Q533.50-1.83 536.61 1.28L536.61 1.28L536.61 1.28Q539.72 4.39 542.87 6.08L542.87 6.08L542.87 6.08Q546.02 7.76 549.24 7.76L549.24 7.76L549.24 7.76Q550.27 7.76 551.22 7.47L551.22 7.47L551.22 7.47Q552.17 7.18 552.91 6.81L552.91 6.81L552.91 6.81Q553.71 6.45 554.52 5.86L554.52 5.86L556.86 8.72L556.86 8.72Q555.83 9.45 553.97 10.47L553.97 10.47L553.97 10.47Q552.10 11.50 549.43 12.45L549.43 12.45L549.43 12.45Q546.75 13.40 543.31 14.06L543.31 14.06L543.31 14.06Q539.87 14.72 535.77 14.72L535.77 14.72L535.77 14.72Q529.83 14.72 524.38 11.83L524.38 11.83L524.38 11.83Q518.92 8.94 513.87 3.88L513.87 3.88L513.87 3.88Q508.81-1.17 504.20-7.95L504.20-7.95L504.20-7.95Q499.58-14.72 495.30-22.49L495.30-22.49L495.30-22.49Q491.02-30.25 487.06-38.67L487.06-38.67L487.06-38.67Q483.11-47.09 479.41-55.33L479.41-55.33L479.41-55.33Q475.71-63.57 472.30-71.30L472.30-71.30L472.30-71.30Q468.90-79.03 465.67-85.47L465.67-85.47L465.67-85.47Q465.67-81.23 465.75-76.68L465.75-76.68L465.75-76.68Q465.82-72.14 465.82-67.53L465.82-67.53L465.82-44.82L465.82-44.82Q465.82-38.75 465.53-32.96L465.53-32.96L465.53-32.96Q465.23-27.17 464.14-22.01L464.14-22.01L464.14-22.01Q463.04-16.85 460.95-12.49L460.95-12.49L460.95-12.49Q458.86-8.13 455.27-4.98L455.27-4.98L455.27-4.98Q451.68-1.83 446.41-0.07L446.41-0.07L446.41-0.07Q441.14 1.68 433.74 1.68L433.74 1.68L433.74 1.68Q430.00 1.68 426.86 1.14L426.86 1.14L426.86 1.14Q423.71 0.59 421.40-0.44L421.40-0.44L421.40-0.44Q419.09-1.46 417.81-2.93L417.81-2.93L417.81-2.93Q416.53-4.39 416.53-6.30L416.53-6.30L416.53-6.30Q416.53-7.47 416.86-8.75L416.86-8.75L416.86-8.75Q417.19-10.03 417.85-11.06L417.85-11.06L417.85-11.06Q418.51-12.08 419.46-12.78L419.46-12.78L419.46-12.78Q420.41-13.48 421.73-13.48L421.73-13.48L421.73-13.48Q422.46-13.48 423.08-12.74L423.08-12.74L423.08-12.74Q423.71-12.01 424.40-10.91L424.40-10.91L424.40-10.91Q425.10-9.81 426.01-8.53L426.01-8.53L426.01-8.53Q426.93-7.25 428.21-6.15L428.21-6.15L428.21-6.15Q429.49-5.05 431.32-4.32L431.32-4.32L431.32-4.32Q433.15-3.59 435.72-3.59L435.72-3.59L435.72-3.59Q441.65-3.59 445.57-5.68L445.57-5.68L445.57-5.68Q449.49-7.76 451.90-11.61L451.90-11.61L451.90-11.61Q454.32-15.45 455.42-20.87L455.42-20.87L455.42-20.87Q456.52-26.29 456.81-33.03L456.81-33.03L456.81-33.03Q457.03-37.65 457.10-41.97L457.10-41.97L457.10-41.97Q457.18-46.29 457.25-50.76L457.25-50.76L457.25-50.76Q457.32-55.22 457.32-60.06L457.32-60.06L457.32-60.06Q457.32-64.89 457.32-70.39ZM600.22-50.68L571.29-33.62L571.29-33.62Q571.29-31.27 571.98-28.53L571.98-28.53L571.98-28.53Q572.68-25.78 574.00-23.00L574.00-23.00L574.00-23.00Q575.32-20.21 577.26-17.69L577.26-17.69L577.26-17.69Q579.20-15.16 581.73-13.18L581.73-13.18L581.73-13.18Q584.25-11.21 587.33-10.03L587.33-10.03L587.33-10.03Q590.41-8.86 594.07-8.86L594.07-8.86L594.07-8.86Q596.63-8.86 598.83-9.45L598.83-9.45L598.83-9.45Q601.03-10.03 602.93-11.06L602.93-11.06L602.93-11.06Q604.83-12.08 606.59-13.44L606.59-13.44L606.59-13.44Q608.35-14.79 610.11-16.33L610.11-16.33L611.94-14.58L611.94-14.58Q610.25-12.30 607.62-9.59L607.62-9.59L607.62-9.59Q604.98-6.88 601.25-4.50L601.25-4.50L601.25-4.50Q597.51-2.12 592.53-0.55L592.53-0.55L592.53-0.55Q587.55 1.03 581.18 1.03L581.18 1.03L581.18 1.03Q574.80 1.03 568.76-1.28L568.76-1.28L568.76-1.28Q562.72-3.59 558.03-8.20L558.03-8.20L558.03-8.20Q553.34-12.82 550.52-19.70L550.52-19.70L550.52-19.70Q547.71-26.59 547.71-35.82L547.71-35.82L547.71-35.82Q547.71-42.48 549.39-48.05L549.39-48.05L549.39-48.05Q551.07-53.61 553.97-58.08L553.97-58.08L553.97-58.08Q556.86-62.55 560.71-65.92L560.71-65.92L560.71-65.92Q564.55-69.29 568.80-71.52L568.80-71.52L568.80-71.52Q573.05-73.75 577.48-74.89L577.48-74.89L577.48-74.89Q581.91-76.03 586.01-76.03L586.01-76.03L586.01-76.03Q591.43-76.03 595.46-74.85L595.46-74.85L595.46-74.85Q599.49-73.68 602.16-71.70L602.16-71.70L602.16-71.70Q604.83-69.73 606.15-67.13L606.15-67.13L606.15-67.13Q607.47-64.53 607.47-61.67L607.47-61.67L607.47-61.67Q607.47-58.23 605.49-55.48L605.49-55.48L605.49-55.48Q603.52-52.73 600.22-50.68L600.22-50.68ZM570.56-39.62L586.01-48.49L586.01-48.49Q586.96-49.07 587.59-49.62L587.59-49.62L587.59-49.62Q588.21-50.17 588.57-50.94L588.57-50.94L588.57-50.94Q588.94-51.71 589.12-52.84L589.12-52.84L589.12-52.84Q589.31-53.98 589.31-55.66L589.31-55.66L589.31-55.66Q589.31-57.50 588.90-59.73L588.90-59.73L588.90-59.73Q588.50-61.96 587.55-63.94L587.55-63.94L587.55-63.94Q586.60-65.92 585.13-67.24L585.13-67.24L585.13-67.24Q583.67-68.55 581.62-68.55L581.62-68.55L581.62-68.55Q578.98-68.55 577.11-66.98L577.11-66.98L577.11-66.98Q575.24-65.41 574.04-62.92L574.04-62.92L574.04-62.92Q572.83-60.42 572.13-57.24L572.13-57.24L572.13-57.24Q571.44-54.05 571.07-50.83L571.07-50.83L571.07-50.83Q570.70-47.61 570.63-44.64L570.63-44.64L570.63-44.64Q570.56-41.67 570.56-39.62L570.56-39.62ZM711.04-52.81L711.04-52.81L711.04-52.81Q711.04-57.64 710.38-60.79L710.38-60.79L710.38-60.79Q709.72-63.94 708.95-66.03L708.95-66.03L708.95-66.03Q708.18-68.12 707.52-69.47L707.52-69.47L707.52-69.47Q706.86-70.83 706.86-72.00L706.86-72.00L706.86-72.00Q706.86-73.10 707.74-73.83L707.74-73.83L707.74-73.83Q708.62-74.56 709.83-75.07L709.83-75.07L709.83-75.07Q711.04-75.59 712.32-75.81L712.32-75.81L712.32-75.81Q713.60-76.03 714.40-76.03L714.40-76.03L714.40-76.03Q716.53-76.03 717.48-75.44L717.48-75.44L717.48-75.44Q718.43-74.85 719.02-73.17L719.02-73.17L719.02-73.17Q719.68-71.04 719.93-67.57L719.93-67.57L719.93-67.57Q720.19-64.09 720.19-60.13L720.19-60.13L720.19-60.13Q720.19-54.49 719.53-47.75L719.53-47.75L719.53-47.75Q718.87-41.02 717.44-34.20L717.44-34.20L717.44-34.20Q716.02-27.39 713.78-21.02L713.78-21.02L713.78-21.02Q711.55-14.65 708.40-9.70L708.40-9.70L708.40-9.70Q705.25-4.76 701.15-1.79L701.15-1.79L701.15-1.79Q697.05 1.17 691.85 1.17L691.85 1.17L691.85 1.17Q687.74 1.17 684.48-0.48L684.48-0.48L684.48-0.48Q681.23-2.12 678.66-4.98L678.66-4.98L678.66-4.98Q676.10-7.84 674.16-11.68L674.16-11.68L674.16-11.68Q672.22-15.53 670.75-19.92L670.75-19.92L670.75-19.92Q669.07-15.45 666.87-11.61L666.87-11.61L666.87-11.61Q664.67-7.76 662.00-4.91L662.00-4.91L662.00-4.91Q659.33-2.05 656.10-0.44L656.10-0.44L656.10-0.44Q652.88 1.17 649.15 1.17L649.15 1.17L649.15 1.17Q644.53 1.17 640.98-0.84L640.98-0.84L640.98-0.84Q637.43-2.86 634.72-6.34L634.72-6.34L634.72-6.34Q632.01-9.81 630.03-14.43L630.03-14.43L630.03-14.43Q628.05-19.04 626.62-24.17L626.62-24.17L626.62-24.17Q625.20-29.30 624.24-34.72L624.24-34.72L624.24-34.72Q623.29-40.14 622.63-45.19L622.63-45.19L622.63-45.19Q621.97-50.24 621.53-54.64L621.53-54.64L621.53-54.64Q621.09-59.03 620.65-62.26L620.65-62.26L620.65-62.26Q620.14-65.19 619.15-66.80L619.15-66.80L619.15-66.80Q618.16-68.41 615.82-68.41L615.82-68.41L615.82-68.41Q614.58-68.41 613.70-67.97L613.70-67.97L613.70-67.97Q612.82-67.53 611.79-66.72L611.79-66.72L610.25-68.55L610.25-68.55Q611.94-69.95 614.03-71.30L614.03-71.30L614.03-71.30Q616.11-72.66 618.53-73.68L618.53-73.68L618.53-73.68Q620.95-74.71 623.73-75.37L623.73-75.37L623.73-75.37Q626.51-76.03 629.59-76.03L629.59-76.03L629.59-76.03Q633.98-76.03 636.69-74.52L636.69-74.52L636.69-74.52Q639.40-73.02 640.98-70.79L640.98-70.79L640.98-70.79Q642.55-68.55 643.21-65.99L643.21-65.99L643.21-65.99Q643.87-63.43 644.17-61.38L644.17-61.38L644.17-61.38Q645.48-50.32 646.77-41.89L646.77-41.89L646.77-41.89Q648.05-33.47 649.51-27.80L649.51-27.80L649.51-27.80Q650.98-22.12 652.70-19.23L652.70-19.23L652.70-19.23Q654.42-16.33 656.76-16.33L656.76-16.33L656.76-16.33Q658.30-16.33 659.77-17.65L659.77-17.65L659.77-17.65Q661.23-18.97 662.55-21.31L662.55-21.31L662.55-21.31Q663.87-23.66 665.04-26.99L665.04-26.99L665.04-26.99Q666.21-30.32 667.09-34.35L667.09-34.35L667.09-34.35Q666.36-38.38 665.84-42.33L665.84-42.33L665.84-42.33Q665.33-46.29 664.93-49.91L664.93-49.91L664.93-49.91Q664.53-53.54 664.16-56.69L664.16-56.69L664.16-56.69Q663.79-59.84 663.35-62.26L663.35-62.26L663.35-62.26Q662.26-69.14 664.64-72.58L664.64-72.58L664.64-72.58Q667.02-76.03 674.19-76.03L674.19-76.03L674.19-76.03Q677.34-76.03 679.50-75.48L679.50-75.48L679.50-75.48Q681.67-74.93 683.09-73.43L683.09-73.43L683.09-73.43Q684.52-71.92 685.40-69.32L685.40-69.32L685.40-69.32Q686.28-66.72 686.79-62.70L686.79-62.70L686.79-62.70Q688.18-51.71 689.50-43.07L689.50-43.07L689.50-43.07Q690.82-34.42 692.29-28.49L692.29-28.49L692.29-28.49Q693.75-22.56 695.47-19.45L695.47-19.45L695.47-19.45Q697.19-16.33 699.54-16.33L699.54-16.33L699.54-16.33Q702.03-16.33 704.15-19.41L704.15-19.41L704.15-19.41Q706.27-22.49 707.81-27.54L707.81-27.54L707.81-27.54Q709.35-32.59 710.19-39.18L710.19-39.18L710.19-39.18Q711.04-45.78 711.04-52.81ZM757.98-70.17L757.98-70.17L757.98-70.17Q756.30-70.17 754.80-69.73L754.80-69.73L754.80-69.73Q753.30-69.29 752.12-68.30L752.12-68.30L752.12-68.30Q750.95-67.31 750.29-65.81L750.29-65.81L750.29-65.81Q749.63-64.31 749.63-62.26L749.63-62.26L749.63-62.26Q749.63-59.40 751.72-56.58L751.72-56.58L751.72-56.58Q753.81-53.76 756.92-50.72L756.92-50.72L756.92-50.72Q760.03-47.68 763.66-44.42L763.66-44.42L763.66-44.42Q767.29-41.16 770.40-37.54L770.40-37.54L770.40-37.54Q773.51-33.91 775.60-29.81L775.60-29.81L775.60-29.81Q777.69-25.71 777.69-21.02L777.69-21.02L777.69-21.02Q777.69-15.75 775.89-11.65L775.89-11.65L775.89-11.65Q774.10-7.54 770.76-4.69L770.76-4.69L770.76-4.69Q767.43-1.83 762.71-0.33L762.71-0.33L762.71-0.33Q757.98 1.17 752.20 1.17L752.20 1.17L752.20 1.17Q747.14 1.17 743.04-0.26L743.04-0.26L743.04-0.26Q738.94-1.68 735.75-3.77L735.75-3.77L735.75-3.77Q732.57-5.86 730.30-8.20L730.30-8.20L730.30-8.20Q728.03-10.55 726.78-12.45L726.78-12.45L729.35-14.28L729.35-14.28Q730.30-13.18 731.76-11.90L731.76-11.90L731.76-11.90Q733.23-10.62 735.02-9.52L735.02-9.52L735.02-9.52Q736.82-8.42 738.87-7.73L738.87-7.73L738.87-7.73Q740.92-7.03 743.04-7.03L743.04-7.03L743.04-7.03Q748.32-7.03 751.68-9.56L751.68-9.56L751.68-9.56Q755.05-12.08 755.05-17.07L755.05-17.07L755.05-17.07Q755.05-19.85 753.22-22.81L753.22-22.81L753.22-22.81Q751.39-25.78 748.61-28.93L748.61-28.93L748.61-28.93Q745.83-32.08 742.60-35.45L742.60-35.45L742.60-35.45Q739.38-38.82 736.60-42.41L736.60-42.41L736.60-42.41Q733.81-46.00 731.98-49.80L731.98-49.80L731.98-49.80Q730.15-53.61 730.15-57.71L730.15-57.71L730.15-57.71Q730.15-62.33 732.02-65.77L732.02-65.77L732.02-65.77Q733.89-69.21 737.00-71.48L737.00-71.48L737.00-71.48Q740.11-73.75 744.10-74.89L744.10-74.89L744.10-74.89Q748.10-76.03 752.34-76.03L752.34-76.03L752.34-76.03Q757.25-76.03 761.28-75.15L761.28-75.15L761.28-75.15Q765.31-74.27 768.20-72.47L768.20-72.47L768.20-72.47Q771.09-70.68 772.67-67.97L772.67-67.97L772.67-67.97Q774.24-65.26 774.24-61.67L774.24-61.67L774.24-61.67Q774.24-58.89 772.41-56.84L772.41-56.84L772.41-56.84Q770.58-54.79 767.29-54.79L767.29-54.79L767.29-54.79Q764.14-54.79 762.49-56.14L762.49-56.14L762.49-56.14Q760.84-57.50 760.84-59.84L760.84-59.84L760.84-59.84Q760.84-61.38 761.61-62.26L761.61-62.26L761.61-62.26Q762.38-63.13 763.33-63.68L763.33-63.68L763.33-63.68Q764.28-64.23 765.05-64.64L765.05-64.64L765.05-64.64Q765.82-65.04 765.82-65.70L765.82-65.70L765.82-65.70Q765.82-67.75 763.62-68.96L763.62-68.96L763.62-68.96Q761.43-70.17 757.98-70.17ZM843.82-96.02L843.82-13.04L843.82-13.04Q843.82-11.35 844.15-9.85L844.15-9.85L844.15-9.85Q844.48-8.35 845.47-7.25L845.47-7.25L845.47-7.25Q846.46-6.15 848.18-5.49L848.18-5.49L848.18-5.49Q849.90-4.83 852.69-4.83L852.69-4.83L852.69-4.83Q856.71-4.83 860.08-7.14L860.08-7.14L860.08-7.14Q863.45-9.45 865.87-13.07L865.87-13.07L865.87-13.07Q868.29-16.70 869.60-21.20L869.60-21.20L869.60-21.20Q870.92-25.71 870.92-30.18L870.92-30.18L870.92-30.18Q870.92-36.84 869.13-41.93L869.13-41.93L869.13-41.93Q867.33-47.02 864.11-50.54L864.11-50.54L864.11-50.54Q860.89-54.05 856.49-55.99L856.49-55.99L856.49-55.99Q852.10-57.93 846.97-58.23L846.97-58.23L848.44-61.96L848.44-61.96Q851.66-61.82 854.59-62.84L854.59-62.84L854.59-62.84Q857.52-63.87 859.75-66.43L859.75-66.43L859.75-66.43Q861.99-68.99 863.31-73.35L863.31-73.35L863.31-73.35Q864.62-77.71 864.62-84.30L864.62-84.30L864.62-84.30Q864.62-88.77 863.53-92.36L863.53-92.36L863.53-92.36Q862.43-95.95 860.63-98.40L860.63-98.40L860.63-98.40Q858.84-100.85 856.46-102.17L856.46-102.17L856.46-102.17Q854.08-103.49 851.59-103.49L851.59-103.49L851.59-103.49Q850.05-103.49 848.62-103.13L848.62-103.13L848.62-103.13Q847.19-102.76 846.13-101.88L846.13-101.88L846.13-101.88Q845.07-101.00 844.45-99.57L844.45-99.57L844.45-99.57Q843.82-98.14 843.82-96.02L843.82-96.02ZM845.29-109.50L845.29-109.50L845.29-109.50Q866.53-109.50 876.53-102.87L876.53-102.87L876.53-102.87Q886.52-96.24 886.52-83.57L886.52-83.57L886.52-83.57Q886.52-80.42 885.83-77.78L885.83-77.78L885.83-77.78Q885.13-75.15 884.03-72.99L884.03-72.99L884.03-72.99Q882.93-70.83 881.54-69.14L881.54-69.14L881.54-69.14Q880.15-67.46 878.69-66.21L878.69-66.21L878.69-66.21Q875.24-63.21 870.92-61.52L870.92-61.52L870.92-60.42L870.92-60.42Q877.73-59.62 883.15-56.32L883.15-56.32L883.15-56.32Q885.42-54.93 887.62-52.84L887.62-52.84L887.62-52.84Q889.82-50.76 891.54-47.79L891.54-47.79L891.54-47.79Q893.26-44.82 894.32-40.91L894.32-40.91L894.32-40.91Q895.39-36.99 895.39-31.93L895.39-31.93L895.39-31.93Q895.39-24.24 892.60-18.09L892.60-18.09L892.60-18.09Q889.82-11.94 884.33-7.65L884.33-7.65L884.33-7.65Q878.83-3.37 870.63-1.10L870.63-1.10L870.63-1.10Q862.43 1.17 851.59 1.17L851.59 1.17L851.59 1.17Q841.55 1.17 835.25-0.07L835.25-0.07L835.25-0.07Q828.96-1.32 825.44-3.70L825.44-3.70L825.44-3.70Q821.92-6.08 820.64-9.45L820.64-9.45L820.64-9.45Q819.36-12.82 819.36-17.07L819.36-17.07L819.36-97.19L819.36-97.19Q819.36-101.22 813.79-101.22L813.79-101.22L813.79-101.22Q809.77-101.22 805.63-100.01L805.63-100.01L805.63-100.01Q801.49-98.80 798.16-96.72L798.16-96.72L798.16-96.72Q794.82-94.63 792.70-91.74L792.70-91.74L792.70-91.74Q790.58-88.84 790.58-85.47L790.58-85.47L790.58-85.47Q790.58-83.13 791.20-81.74L791.20-81.74L791.20-81.74Q791.82-80.35 792.63-79.65L792.63-79.65L792.63-79.65Q793.43-78.96 794.27-78.77L794.27-78.77L794.27-78.77Q795.12-78.59 795.48-78.59L795.48-78.59L795.48-78.59Q797.31-78.59 798.49-79.21L798.49-79.21L798.49-79.21Q799.66-79.83 800.61-80.53L800.61-80.53L800.61-80.53Q801.56-81.23 802.40-81.85L802.40-81.85L802.40-81.85Q803.25-82.47 804.35-82.47L804.35-82.47L804.35-82.47Q805.22-82.47 806.21-82.07L806.21-82.07L806.21-82.07Q807.20-81.67 808.04-80.79L808.04-80.79L808.04-80.79Q808.89-79.91 809.47-78.48L809.47-78.48L809.47-78.48Q810.06-77.05 810.06-75L810.06-75L810.06-75Q810.06-72.07 808.92-69.95L808.92-69.95L808.92-69.95Q807.79-67.82 805.99-66.39L805.99-66.39L805.99-66.39Q804.20-64.97 801.89-64.27L801.89-64.27L801.89-64.27Q799.58-63.57 797.31-63.57L797.31-63.57L797.31-63.57Q793.80-63.57 790.98-64.78L790.98-64.78L790.98-64.78Q788.16-65.99 786.18-68.12L786.18-68.12L786.18-68.12Q784.20-70.24 783.18-73.10L783.18-73.10L783.18-73.10Q782.15-75.95 782.15-79.17L782.15-79.17L782.15-79.17Q782.15-85.25 784.42-89.90L784.42-89.90L784.42-89.90Q786.69-94.56 790.83-97.92L790.83-97.92L790.83-97.92Q794.97-101.29 800.76-103.53L800.76-103.53L800.76-103.53Q806.54-105.76 813.57-107.08L813.57-107.08L813.57-107.08Q820.61-108.40 828.63-108.95L828.63-108.95L828.63-108.95Q836.65-109.50 845.29-109.50ZM904.39-37.50L904.39-37.50L904.39-37.50Q904.39-47.09 907.18-54.31L907.18-54.31L907.18-54.31Q909.96-61.52 914.61-66.36L914.61-66.36L914.61-66.36Q919.26-71.19 925.42-73.61L925.42-73.61L925.42-73.61Q931.57-76.03 938.31-76.03L938.31-76.03L938.31-76.03Q945.04-76.03 951.20-73.79L951.20-73.79L951.20-73.79Q957.35-71.56 962.00-66.94L962.00-66.94L962.00-66.94Q966.65-62.33 969.43-55.26L969.43-55.26L969.43-55.26Q972.22-48.19 972.22-38.53L972.22-38.53L972.22-38.53Q972.22-28.93 969.43-21.53L969.43-21.53L969.43-21.53Q966.65-14.14 962.00-9.08L962.00-9.08L962.00-9.08Q957.35-4.03 951.20-1.43L951.20-1.43L951.20-1.43Q945.04 1.17 938.31 1.17L938.31 1.17L938.31 1.17Q931.57 1.17 925.42-1.28L925.42-1.28L925.42-1.28Q919.26-3.74 914.61-8.57L914.61-8.57L914.61-8.57Q909.96-13.40 907.18-20.65L907.18-20.65L907.18-20.65Q904.39-27.91 904.39-37.50ZM949.44-38.23L949.44-38.23L949.44-38.23Q949.44-44.09 949.04-49.55L949.04-49.55L949.04-49.55Q948.63-55.00 947.46-59.25L947.46-59.25L947.46-59.25Q946.29-63.50 944.09-66.03L944.09-66.03L944.09-66.03Q941.89-68.55 938.31-68.55L938.31-68.55L938.31-68.55Q934.72-68.55 932.52-65.88L932.52-65.88L932.52-65.88Q930.32-63.21 929.15-58.85L929.15-58.85L929.15-58.85Q927.98-54.49 927.61-48.93L927.61-48.93L927.61-48.93Q927.25-43.36 927.25-37.50L927.25-37.50L927.25-37.50Q927.25-31.64 927.61-26.04L927.61-26.04L927.61-26.04Q927.98-20.43 929.15-16.04L929.15-16.04L929.15-16.04Q930.32-11.65 932.52-8.97L932.52-8.97L932.52-8.97Q934.72-6.30 938.31-6.30L938.31-6.30L938.31-6.30Q941.89-6.30 944.09-9.08L944.09-9.08L944.09-9.08Q946.29-11.87 947.46-16.41L947.46-16.41L947.46-16.41Q948.63-20.95 949.04-26.66L949.04-26.66L949.04-26.66Q949.44-32.37 949.44-38.23ZM1018.87-20.07L1018.87-37.94L1018.87-37.94Q1018.87-39.77 1017.70-40.72L1017.70-40.72L1017.70-40.72Q1016.53-41.67 1014.70-41.67L1014.70-41.67L1014.70-41.67Q1012.13-41.67 1009.83-40.50L1009.83-40.50L1009.83-40.50Q1007.52-39.33 1005.76-37.06L1005.76-37.06L1005.76-37.06Q1004.00-34.79 1002.98-31.46L1002.98-31.46L1002.98-31.46Q1001.95-28.13 1001.95-23.73L1001.95-23.73L1001.95-23.73Q1001.95-19.48 1002.58-16.70L1002.58-16.70L1002.58-16.70Q1003.20-13.92 1004.26-12.27L1004.26-12.27L1004.26-12.27Q1005.32-10.62 1006.71-9.96L1006.71-9.96L1006.71-9.96Q1008.11-9.30 1009.64-9.30L1009.64-9.30L1009.64-9.30Q1011.55-9.30 1013.23-10.29L1013.23-10.29L1013.23-10.29Q1014.92-11.28 1016.16-12.82L1016.16-12.82L1016.16-12.82Q1017.41-14.36 1018.14-16.26L1018.14-16.26L1018.14-16.26Q1018.87-18.16 1018.87-20.07L1018.87-20.07ZM1007.23-70.02L1007.23-70.02L1007.23-70.02Q1004.74-70.02 1002.61-69.43L1002.61-69.43L1002.61-69.43Q1000.49-68.85 998.95-67.97L998.95-67.97L998.95-67.97Q997.41-67.09 996.53-66.03L996.53-66.03L996.53-66.03Q995.65-64.97 995.65-64.01L995.65-64.01L995.65-64.01Q995.65-62.92 996.79-62.44L996.79-62.44L996.79-62.44Q997.92-61.96 999.32-61.34L999.32-61.34L999.32-61.34Q1000.71-60.72 1001.84-59.58L1001.84-59.58L1001.84-59.58Q1002.98-58.45 1002.98-56.10L1002.98-56.10L1002.98-56.10Q1002.98-54.57 1002.36-53.28L1002.36-53.28L1002.36-53.28Q1001.73-52.00 1000.67-51.01L1000.67-51.01L1000.67-51.01Q999.61-50.02 998.18-49.48L998.18-49.48L998.18-49.48Q996.75-48.93 995.21-48.93L995.21-48.93L995.21-48.93Q991.11-48.93 988.59-51.71L988.59-51.71L988.59-51.71Q986.06-54.49 986.06-59.11L986.06-59.11L986.06-59.11Q986.06-63.57 988.40-66.76L988.40-66.76L988.40-66.76Q990.75-69.95 994.52-72.00L994.52-72.00L994.52-72.00Q998.29-74.05 1003.05-75.04L1003.05-75.04L1003.05-75.04Q1007.81-76.03 1012.57-76.03L1012.57-76.03L1012.57-76.03Q1018.29-76.03 1023.49-74.78L1023.49-74.78L1023.49-74.78Q1028.69-73.54 1032.68-70.83L1032.68-70.83L1032.68-70.83Q1036.67-68.12 1039.05-63.94L1039.05-63.94L1039.05-63.94Q1041.43-59.77 1041.43-53.83L1041.43-53.83L1041.43-12.45L1041.43-12.45Q1041.43-11.79 1041.50-10.99L1041.50-10.99L1041.50-10.99Q1041.58-10.18 1041.87-9.52L1041.87-9.52L1041.87-9.52Q1042.16-8.86 1042.75-8.42L1042.75-8.42L1042.75-8.42Q1043.33-7.98 1044.43-7.98L1044.43-7.98L1044.43-7.98Q1045.75-7.98 1046.89-8.97L1046.89-8.97L1046.89-8.97Q1048.02-9.96 1048.90-10.99L1048.90-10.99L1050.73-9.45L1050.73-9.45Q1049.63-7.91 1048.10-6.08L1048.10-6.08L1048.10-6.08Q1046.56-4.25 1044.36-2.64L1044.36-2.64L1044.36-2.64Q1042.16-1.03 1039.23 0.07L1039.23 0.07L1039.23 0.07Q1036.30 1.17 1032.57 1.17L1032.57 1.17L1032.57 1.17Q1027.95 1.17 1024.37-1.57L1024.37-1.57L1024.37-1.57Q1020.78-4.32 1019.68-10.03L1019.68-10.03L1019.68-10.03Q1017.33-6.88 1014.81-4.76L1014.81-4.76L1014.81-4.76Q1012.28-2.64 1009.64-1.32L1009.64-1.32L1009.64-1.32Q1007.01 0 1004.33 0.59L1004.33 0.59L1004.33 0.59Q1001.66 1.17 998.95 1.17L998.95 1.17L998.95 1.17Q995.43 1.17 992.14 0.07L992.14 0.07L992.14 0.07Q988.84-1.03 986.24-3.41L986.24-3.41L986.24-3.41Q983.64-5.79 982.07-9.59L982.07-9.59L982.07-9.59Q980.49-13.40 980.49-18.90L980.49-18.90L980.49-18.90Q980.49-25.56 983.13-29.81L983.13-29.81L983.13-29.81Q985.77-34.06 990.05-36.95L990.05-36.95L990.05-36.95Q994.34-39.84 999.79-41.89L999.79-41.89L999.79-41.89Q1005.25-43.95 1010.96-46.22L1010.96-46.22L1010.96-46.22Q1015.21-47.90 1017.15-51.23L1017.15-51.23L1017.15-51.23Q1019.09-54.57 1019.09-58.08L1019.09-58.08L1019.09-58.08Q1019.09-63.50 1015.91-66.76L1015.91-66.76L1015.91-66.76Q1012.72-70.02 1007.23-70.02ZM1083.98-60.57L1083.98-60.57L1083.98-60.57Q1086.77-64.82 1089.92-68.26L1089.92-68.26L1089.92-68.26Q1091.24-69.73 1092.77-71.12L1092.77-71.12L1092.77-71.12Q1094.31-72.51 1095.96-73.61L1095.96-73.61L1095.96-73.61Q1097.61-74.71 1099.37-75.37L1099.37-75.37L1099.37-75.37Q1101.12-76.03 1102.88-76.03L1102.88-76.03L1102.88-76.03Q1106.62-76.03 1108.74-73.79L1108.74-73.79L1108.74-73.79Q1110.86-71.56 1110.86-67.53L1110.86-67.53L1110.86-67.53Q1110.86-65.04 1110.46-62.73L1110.46-62.73L1110.46-62.73Q1110.06-60.42 1108.89-57.13L1108.89-57.13L1106.84-57.13L1106.84-57.13Q1106.40-59.40 1104.79-60.90L1104.79-60.90L1104.79-60.90Q1103.17-62.40 1100.10-62.40L1100.10-62.40L1100.10-62.40Q1097.83-62.40 1095.63-61.56L1095.63-61.56L1095.63-61.56Q1093.43-60.72 1091.35-59.47L1091.35-59.47L1091.35-59.47Q1089.26-58.23 1087.39-56.76L1087.39-56.76L1087.39-56.76Q1085.52-55.30 1083.98-53.98L1083.98-53.98L1083.98-6.45L1083.98-6.45Q1083.98-5.49 1083.69-4.17L1083.69-4.17L1083.69-4.17Q1083.40-2.86 1082.26-1.68L1082.26-1.68L1082.26-1.68Q1081.13-0.51 1078.89 0.33L1078.89 0.33L1078.89 0.33Q1076.66 1.17 1072.78 1.17L1072.78 1.17L1072.78 1.17Q1068.90 1.17 1066.66 0.26L1066.66 0.26L1066.66 0.26Q1064.43-0.66 1063.26-1.90L1063.26-1.90L1063.26-1.90Q1062.08-3.15 1061.79-4.47L1061.79-4.47L1061.79-4.47Q1061.50-5.79 1061.50-6.59L1061.50-6.59L1061.50-63.13L1061.50-63.13Q1061.50-65.26 1060.51-66.83L1060.51-66.83L1060.51-66.83Q1059.52-68.41 1057.18-68.41L1057.18-68.41L1057.18-68.41Q1055.93-68.41 1055.05-67.97L1055.05-67.97L1055.05-67.97Q1054.17-67.53 1053.15-66.72L1053.15-66.72L1051.61-68.55L1051.61-68.55Q1053.30-69.95 1055.38-71.30L1055.38-71.30L1055.38-71.30Q1057.47-72.66 1059.89-73.68L1059.89-73.68L1059.89-73.68Q1062.30-74.71 1065.09-75.37L1065.09-75.37L1065.09-75.37Q1067.87-76.03 1070.95-76.03L1070.95-76.03L1070.95-76.03Q1074.10-76.03 1076.33-75.18L1076.33-75.18L1076.33-75.18Q1078.56-74.34 1079.99-72.99L1079.99-72.99L1079.99-72.99Q1081.42-71.63 1082.23-69.95L1082.23-69.95L1082.23-69.95Q1083.03-68.26 1083.44-66.54L1083.44-66.54L1083.44-66.54Q1083.84-64.82 1083.91-63.24L1083.91-63.24L1083.91-63.24Q1083.98-61.67 1083.98-60.57ZM1157.81-39.77L1157.81-39.77L1157.81-39.77Q1157.81-40.58 1157.81-43.03L1157.81-43.03L1157.81-43.03Q1157.81-45.48 1157.67-48.67L1157.67-48.67L1157.67-48.67Q1157.52-51.86 1157.15-55.44L1157.15-55.44L1157.15-55.44Q1156.79-59.03 1155.98-62.11L1155.98-62.11L1155.98-62.11Q1154.22-64.38 1152.06-66.17L1152.06-66.17L1152.06-66.17Q1149.90-67.97 1146.53-67.97L1146.53-67.97L1146.53-67.97Q1140.82-67.97 1138.15-60.50L1138.15-60.50L1138.15-60.50Q1135.47-53.03 1135.47-37.35L1135.47-37.35L1135.47-37.35Q1135.47-30.47 1136.10-24.76L1136.10-24.76L1136.10-24.76Q1136.72-19.04 1138.00-14.94L1138.00-14.94L1138.00-14.94Q1139.28-10.84 1141.30-8.57L1141.30-8.57L1141.30-8.57Q1143.31-6.30 1146.09-6.30L1146.09-6.30L1146.09-6.30Q1157.81-6.30 1157.81-39.77ZM1156.93-72.00L1156.93-72.00L1156.93-72.00Q1155.54-79.32 1153.05-85.66L1153.05-85.66L1153.05-85.66Q1150.56-91.99 1147.08-96.61L1147.08-96.61L1147.08-96.61Q1143.60-101.22 1139.17-103.86L1139.17-103.86L1139.17-103.86Q1134.74-106.49 1129.61-106.49L1129.61-106.49L1129.61-106.49Q1126.68-106.49 1124.30-105.76L1124.30-105.76L1124.30-105.76Q1121.92-105.03 1120.17-104.04L1120.17-104.04L1120.17-104.04Q1118.41-103.05 1117.27-102.14L1117.27-102.14L1117.27-102.14Q1116.14-101.22 1115.63-100.78L1115.63-100.78L1113.72-103.34L1113.72-103.34Q1115.48-105.62 1118.01-107.59L1118.01-107.59L1118.01-107.59Q1120.53-109.57 1123.54-110.96L1123.54-110.96L1123.54-110.96Q1126.54-112.35 1129.87-113.16L1129.87-113.16L1129.87-113.16Q1133.20-113.96 1136.50-113.96L1136.50-113.96L1136.50-113.96Q1147.34-113.96 1155.54-109.24L1155.54-109.24L1155.54-109.24Q1163.75-104.52 1169.24-95.87L1169.24-95.87L1169.24-95.87Q1174.73-87.23 1177.51-75L1177.51-75L1177.51-75Q1180.30-62.77 1180.30-47.83L1180.30-47.83L1180.30-47.83Q1180.30-35.74 1177.84-26.59L1177.84-26.59L1177.84-26.59Q1175.39-17.43 1170.85-11.24L1170.85-11.24L1170.85-11.24Q1166.31-5.05 1159.83-1.94L1159.83-1.94L1159.83-1.94Q1153.34 1.17 1145.21 1.17L1145.21 1.17L1145.21 1.17Q1139.58 1.17 1133.75-0.84L1133.75-0.84L1133.75-0.84Q1127.93-2.86 1123.21-7.40L1123.21-7.40L1123.21-7.40Q1118.48-11.94 1115.48-19.30L1115.48-19.30L1115.48-19.30Q1112.48-26.66 1112.48-37.35L1112.48-37.35L1112.48-37.35Q1112.48-46.58 1115.08-53.76L1115.08-53.76L1115.08-53.76Q1117.68-60.94 1122.07-65.88L1122.07-65.88L1122.07-65.88Q1126.46-70.83 1132.25-73.43L1132.25-73.43L1132.25-73.43Q1138.04-76.03 1144.48-76.03L1144.48-76.03L1144.48-76.03Q1146.97-76.03 1148.95-75.62L1148.95-75.62L1148.95-75.62Q1150.93-75.22 1152.39-74.63L1152.39-74.63L1152.39-74.63Q1153.86-74.05 1154.96-73.35L1154.96-73.35L1154.96-73.35Q1156.05-72.66 1156.93-72.00Z" fill="#f7f6f6"></path></g></g><style>text {
  font-size: 64px;
  font-family: Arial Black;
  dominant-baseline: central;
  text-anchor: middle;
}</style></svg>