<?xml version="1.0" standalone="no"?>
<!DOCTYPE svg PUBLIC "-//W3C//DTD SVG 20010904//EN"
 "http://www.w3.org/TR/2001/REC-SVG-20010904/DTD/svg10.dtd">
<svg version="1.0" xmlns="http://www.w3.org/2000/svg"
 width="1062.000000pt" height="140.000000pt" viewBox="0 0 1062.000000 140.000000"
 preserveAspectRatio="xMidYMid meet">

<g transform="translate(0.000000,140.000000) scale(0.100000,-0.100000)"
fill="#ffffff" stroke="none">
<path d="M1792 1230 c-51 -37 -96 -71 -100 -75 -4 -4 7 -18 23 -31 l30 -24 0
-307 0 -307 -34 -23 c-19 -13 -41 -21 -49 -18 -8 3 -23 -2 -34 -12 -18 -16
-20 -16 -36 1 -15 14 -17 44 -21 214 l-3 198 27 32 c30 36 26 54 -6 34 -17
-11 -25 -9 -58 18 -22 16 -44 30 -51 30 -13 0 -102 -76 -109 -93 -2 -5 9 -21
23 -36 l26 -28 -2 -168 -3 -169 -28 -16 c-27 -15 -29 -14 -67 27 l-40 42 0
176 c0 186 -5 210 -49 248 -12 9 -30 17 -40 17 -19 0 -125 -60 -151 -85 -13
-13 -9 -15 28 -15 31 0 44 -5 52 -19 6 -11 10 -89 10 -182 0 -140 -2 -165 -17
-182 -17 -18 -17 -20 7 -39 13 -11 49 -41 78 -66 30 -26 58 -48 63 -50 5 -2
41 21 80 52 56 43 75 53 86 45 7 -6 13 -18 13 -26 0 -20 55 -73 75 -73 9 0 49
23 90 50 41 28 76 50 77 49 2 0 15 2 29 6 21 5 46 -5 120 -49 l93 -55 50 28
c58 33 109 62 181 102 l50 28 3 193 2 194 -60 57 c-33 31 -65 57 -70 57 -6 0
-38 -18 -70 -40 -98 -66 -90 -80 -90 154 0 190 -1 206 -17 205 -10 0 -60 -31
-111 -69z m230 -400 l38 -41 0 -170 c0 -188 -4 -199 -59 -160 -16 12 -33 21
-37 21 -4 0 -16 7 -26 17 -16 14 -18 34 -18 179 0 157 1 163 22 178 32 22 36
21 80 -24z"/>
<path d="M2395 1234 c-118 -86 -113 -79 -82 -112 l27 -28 0 -305 0 -304 -35
-23 c-45 -29 -46 -46 -2 -38 25 5 38 1 57 -16 14 -13 42 -38 63 -56 l38 -32
75 51 c75 52 94 76 50 65 -15 -4 -31 1 -45 13 -21 18 -21 22 -21 435 0 390 -1
416 -17 416 -10 0 -58 -30 -108 -66z"/>
<path d="M7805 1262 c-96 -51 -130 -75 -205 -150 l-65 -64 -6 -236 c-3 -161
-9 -245 -18 -263 -7 -15 -28 -31 -49 -38 -89 -30 -149 -68 -214 -132 -65 -65
-84 -99 -54 -99 7 0 19 7 27 16 32 38 163 84 242 84 46 0 87 -9 188 -41 l66
-21 199 102 c109 57 205 107 212 113 9 7 12 53 12 168 l0 158 -42 28 c-24 16
-60 37 -80 46 -45 21 -47 31 -10 54 15 10 33 23 40 30 7 7 16 13 20 13 4 1 18
10 31 20 l23 20 -36 45 c-20 24 -42 50 -49 57 -7 7 -34 39 -61 71 -59 69 -74
71 -171 19z m-57 -428 c-3 -323 -3 -329 -23 -326 -11 2 -46 7 -77 11 -31 4
-60 10 -64 14 -4 4 14 29 39 56 73 78 77 94 77 328 0 167 3 210 16 235 10 19
19 27 25 21 5 -5 8 -145 7 -339z m85 314 c14 -18 46 -55 71 -83 25 -27 45 -53
46 -57 0 -8 -104 -89 -136 -106 -12 -6 -24 -8 -28 -5 -3 3 -6 69 -6 145 0 153
6 165 53 106z m42 -322 c33 -18 60 -38 60 -45 0 -14 -136 -82 -147 -74 -10 5
-11 137 -1 146 11 12 27 7 88 -27z m95 -125 c0 -21 -6 -43 -12 -49 -30 -24
-158 -83 -167 -77 -13 7 -14 54 -3 72 9 14 150 91 170 92 8 1 12 -13 12 -38z
m0 -158 c0 -32 -4 -63 -8 -68 -4 -6 -26 -19 -49 -29 -41 -18 -42 -18 -76 3
-53 32 -64 49 -45 67 20 21 139 82 161 83 14 1 17 -8 17 -56z"/>
<path d="M769 1267 c-19 -13 -66 -47 -105 -75 -39 -29 -74 -52 -77 -52 -4 0
-7 27 -7 60 0 53 -2 60 -20 60 -18 0 -20 -7 -20 -78 0 -72 -9 -102 -32 -102
-4 0 -8 10 -8 21 0 45 -25 101 -57 129 -29 26 -42 30 -89 30 -30 0 -68 -7 -83
-15 -57 -29 -107 -113 -83 -137 6 -6 17 1 31 21 15 21 31 31 48 31 44 0 52
-24 53 -157 0 -121 0 -123 -22 -123 -30 0 -83 -33 -103 -64 -9 -14 -19 -43
-22 -64 -7 -50 12 -65 39 -32 14 17 30 24 61 24 l42 1 3 -116 3 -115 -56 -38
c-50 -35 -115 -107 -115 -128 0 -4 7 -8 15 -8 8 0 15 3 15 8 0 13 98 72 119
72 20 0 21 -6 21 -120 l0 -120 130 0 130 0 0 100 c0 55 3 100 6 100 3 0 14 -5
25 -11 16 -8 36 -1 107 37 168 90 217 117 230 127 9 7 12 82 12 314 l0 304
-70 69 c-39 39 -75 70 -79 70 -5 0 -23 -10 -42 -23z m-21 -165 c49 -44 52 -50
52 -95 l0 -47 -100 -50 c-55 -27 -104 -50 -110 -50 -6 0 -10 43 -10 114 l0
114 42 31 c23 17 49 31 57 31 9 0 40 -21 69 -48z m-208 -297 c0 -238 -1 -245
-20 -245 -19 0 -20 7 -20 239 0 238 1 247 33 250 4 1 7 -109 7 -244z m258 63
l-3 -43 -100 -52 c-55 -29 -103 -52 -107 -53 -5 0 -8 20 -8 44 l0 44 103 51
c56 28 106 51 110 51 5 0 7 -19 5 -42z m2 -239 c0 -110 -3 -141 -14 -145 -8
-3 -38 7 -67 23 -30 15 -72 33 -94 38 l-40 10 0 59 0 59 100 53 c55 29 103 50
107 48 5 -3 8 -68 8 -145z m-262 -312 c3 -92 2 -97 -18 -97 -19 0 -20 6 -20
101 0 90 2 100 18 97 14 -3 17 -17 20 -101z"/>
<path d="M4051 1280 c-48 -11 -100 -67 -112 -120 -15 -67 6 -107 29 -56 16 35
43 47 73 33 22 -12 24 -18 27 -104 l3 -91 -28 -7 c-115 -28 -160 -139 -90
-220 34 -39 59 -41 50 -5 -7 26 13 50 43 50 24 0 24 -1 24 -98 l0 -98 -54 -17
c-29 -9 -62 -25 -73 -35 -79 -68 -84 -185 -11 -247 38 -33 66 -45 103 -45 43
0 44 10 5 32 -52 29 -59 90 -14 110 28 13 88 3 104 -17 18 -22 45 -18 63 7 9
13 41 50 71 83 31 33 56 63 56 68 0 12 -18 8 -35 -10 -16 -15 -19 -15 -43 1
-15 9 -43 24 -62 33 -19 8 -42 19 -50 23 -22 10 -28 470 -6 470 7 0 20 -12 27
-28 14 -26 166 -284 276 -465 29 -49 53 -90 53 -93 0 -2 16 -29 36 -59 28 -44
40 -56 57 -53 l22 3 5 375 c5 365 6 375 25 378 24 4 66 23 82 38 46 43 68 129
39 153 -11 9 -20 5 -44 -19 -38 -38 -67 -38 -122 -1 -52 35 -52 36 -143 -72
-46 -54 -65 -83 -58 -90 7 -7 17 -2 30 14 l19 24 33 -19 c18 -11 46 -22 63
-26 30 -6 31 -8 38 -75 8 -77 -1 -325 -11 -325 -4 0 -76 116 -161 257 -156
259 -219 343 -257 343 -12 0 -27 2 -35 4 -7 2 -28 0 -47 -4z"/>
<path d="M7346 1276 c-46 -17 -102 -61 -124 -98 -21 -36 -8 -47 22 -19 21 20
32 22 88 18 81 -7 138 -17 138 -26 0 -3 -31 -25 -69 -49 -69 -44 -96 -80 -103
-142 -2 -20 -12 -28 -45 -38 -80 -25 -114 -84 -99 -167 8 -43 30 -46 44 -6 8
23 19 31 46 36 19 4 39 4 45 0 7 -4 11 -45 11 -103 0 -101 -17 -161 -53 -191
-22 -18 -22 -41 1 -41 53 1 147 68 190 134 26 40 26 45 31 274 l6 233 35 29
c19 16 70 55 112 87 77 58 93 82 47 73 -35 -7 -133 -6 -214 3 -52 5 -80 3
-109 -7z"/>
<path d="M9980 1150 c0 -93 2 -110 16 -110 15 0 114 -87 114 -100 0 -4 -31
-28 -70 -54 l-70 -46 0 -194 c0 -219 -10 -192 103 -271 49 -34 75 -45 91 -41
22 5 223 122 252 147 11 9 14 46 14 185 0 173 0 173 26 199 15 15 23 32 20 41
-5 13 -10 13 -36 -2 l-30 -18 -42 39 c-23 22 -45 42 -48 45 -3 3 -39 35 -80
70 -41 36 -77 67 -80 70 -3 3 -39 35 -80 70 -41 36 -76 68 -78 73 -2 4 -8 7
-13 7 -5 0 -9 -49 -9 -110z m230 -292 l55 -52 3 -178 c3 -149 1 -179 -11 -184
-20 -7 -114 56 -121 81 -8 29 -7 370 1 378 11 11 16 8 73 -45z"/>
<path d="M2771 1210 c-28 -23 -55 -48 -58 -56 -6 -15 83 -127 98 -122 19 7
109 91 109 101 0 7 -22 36 -48 65 l-48 54 -53 -42z"/>
<path d="M5339 1076 c-46 -32 -73 -87 -66 -134 4 -20 23 -55 45 -81 61 -73 62
-76 62 -251 0 -159 0 -161 -25 -183 -17 -15 -22 -26 -16 -35 7 -11 12 -12 29
-1 18 11 28 7 94 -38 l74 -52 68 40 c37 21 76 39 87 39 11 0 43 -18 72 -39
l52 -40 135 71 c74 38 143 77 153 86 15 13 17 37 17 213 l0 198 30 21 c50 36
36 67 -15 34 -24 -16 -26 -15 -60 15 -40 34 -48 37 -67 18 -7 -7 -32 -27 -55
-45 -24 -19 -43 -39 -43 -46 0 -7 11 -23 25 -36 25 -23 25 -25 25 -201 0 -98
-3 -184 -6 -193 -9 -22 -40 -20 -77 6 -56 38 -57 40 -57 209 0 141 2 159 20
182 26 33 25 39 -7 67 -16 12 -40 34 -55 48 l-27 25 -38 -26 c-52 -35 -93 -72
-93 -84 0 -5 9 -18 20 -28 19 -17 20 -31 20 -217 0 -226 0 -225 -78 -167 l-42
31 0 168 c0 106 -4 180 -12 197 -6 15 -40 55 -75 89 -71 68 -76 87 -37 133
l26 31 -34 0 c-19 0 -49 -11 -69 -24z"/>
<path d="M3290 948 c-30 -17 -81 -45 -113 -63 -103 -57 -97 -40 -97 -243 0
-172 1 -179 23 -199 28 -25 174 -123 183 -123 16 0 194 157 194 172 0 14 -24
8 -50 -12 -45 -35 -115 -19 -159 36 -19 24 -21 40 -21 180 0 92 4 155 10 159
6 4 29 -10 52 -29 23 -20 47 -36 53 -36 9 0 69 40 115 77 6 5 -120 114 -131
113 -2 0 -29 -15 -59 -32z"/>
<path d="M8510 958 c-37 -22 -84 -49 -191 -110 -61 -34 -59 -28 -59 -203 0
-160 0 -162 -25 -183 -24 -21 -33 -42 -18 -42 4 0 21 5 38 12 31 11 36 8 115
-52 82 -62 83 -63 109 -46 14 9 79 48 144 87 l117 70 0 173 0 174 -57 43 c-32
24 -60 46 -63 49 -7 8 -67 50 -72 50 -1 0 -19 -10 -38 -22z m-23 -112 c21 -14
50 -35 66 -46 l27 -22 0 -174 c0 -132 -3 -174 -12 -174 -14 0 -118 68 -130 85
-12 15 -10 355 2 355 5 0 26 -11 47 -24z"/>
<path d="M9874 965 c-22 -16 -80 -20 -89 -5 -13 21 -39 9 -78 -36 l-40 -45
-48 47 -48 47 -80 -53 c-45 -29 -81 -59 -81 -66 0 -16 26 -19 35 -4 11 18 30
10 48 -19 14 -24 17 -56 17 -189 0 -170 -2 -176 -51 -202 -10 -6 -19 -17 -19
-25 0 -18 5 -18 31 -4 17 9 30 3 86 -40 36 -28 71 -51 77 -51 6 1 51 30 99 66
67 50 86 69 78 77 -9 9 -19 7 -42 -6 -39 -22 -52 -21 -72 1 -15 16 -17 45 -17
200 0 100 2 182 5 182 2 0 19 -9 37 -20 78 -47 155 -11 183 86 21 71 11 90
-31 59z"/>
<path d="M2718 919 c-43 -29 -78 -58 -78 -65 0 -17 22 -18 38 -2 9 9 17 6 37
-12 25 -23 25 -25 25 -197 l0 -174 -30 -17 c-30 -17 -45 -40 -35 -51 3 -3 15
0 26 7 23 15 24 14 94 -50 22 -21 43 -38 48 -38 12 0 177 112 177 121 0 17
-23 21 -46 8 -20 -10 -29 -10 -49 1 l-25 13 0 198 0 197 -46 56 c-26 31 -49
56 -53 56 -3 0 -41 -23 -83 -51z"/>
<path d="M4960 904 c-191 -100 -170 -67 -170 -259 l0 -164 -26 -25 c-36 -33
-24 -50 21 -29 l34 16 82 -61 c46 -34 90 -62 99 -62 15 0 53 24 86 55 6 5 48
39 92 75 45 36 82 71 82 78 0 24 -32 12 -87 -33 -30 -25 -60 -45 -66 -45 -13
0 -132 77 -148 96 -6 7 -8 25 -5 38 6 23 38 46 213 150 29 17 52 37 53 44 0
15 -117 192 -128 192 -4 -1 -63 -30 -132 -66z m32 -51 c38 -44 89 -126 85
-137 -7 -17 -105 -68 -117 -61 -5 3 -10 46 -10 95 0 118 9 140 42 103z"/>
<path d="M6485 956 c-11 -7 -37 -23 -57 -35 -21 -11 -55 -31 -75 -42 -95 -53
-93 -51 -93 -149 l0 -89 40 -32 c22 -18 40 -37 40 -43 0 -6 -13 -24 -28 -41
-65 -70 -78 -104 -73 -186 1 -29 45 -79 68 -79 12 0 14 8 9 34 -10 52 0 66 48
66 28 0 49 -7 64 -20 12 -11 29 -20 39 -19 10 0 68 30 128 67 l110 67 3 100 3
100 -50 38 c-34 25 -48 42 -45 52 4 8 10 15 15 15 12 0 65 118 73 162 9 48 -8
57 -43 24 -34 -33 -68 -33 -111 -1 -40 29 -40 29 -65 11z m-41 -101 c10 -26
69 -55 114 -55 23 0 42 -4 42 -9 0 -12 -110 -111 -124 -111 -5 0 -20 10 -33
22 -20 19 -23 31 -23 95 0 68 10 93 24 58z m75 -264 c27 -26 31 -35 31 -84 0
-64 -12 -77 -43 -50 -32 28 -73 43 -117 43 -22 0 -40 3 -40 7 0 11 113 112
126 113 7 0 26 -13 43 -29z"/>
<path d="M8976 916 c-91 -49 -115 -77 -116 -127 0 -29 8 -45 36 -73 20 -20 40
-36 45 -36 20 0 7 -19 -35 -51 -86 -66 -109 -152 -61 -229 26 -41 88 -80 127
-80 12 0 48 18 79 40 32 22 63 40 71 40 8 0 32 -18 53 -40 21 -22 44 -40 50
-40 16 1 158 103 163 118 3 9 -3 10 -24 2 -24 -9 -31 -7 -56 17 l-28 27 0 164
c0 163 0 164 25 184 14 11 25 26 25 34 0 16 -26 19 -35 4 -12 -20 -46 -9 -123
40 -43 28 -87 50 -98 49 -10 0 -54 -20 -98 -43z m71 -95 l73 -46 0 -52 c0 -28
-3 -54 -7 -56 -16 -8 -145 40 -179 66 -45 36 -48 88 -7 123 15 12 32 20 37 17
6 -3 44 -26 83 -52z m8 -181 c67 -17 65 -14 65 -116 0 -108 -7 -117 -67 -87
-49 24 -77 73 -78 137 0 66 10 90 33 81 9 -4 31 -11 47 -15z"/>
</g>
</svg>
